<?xml version="1.0" standalone="no"?>
<!DOCTYPE svg PUBLIC "-//W3C//DTD SVG 20010904//EN"
 "http://www.w3.org/TR/2001/REC-SVG-20010904/DTD/svg10.dtd">
<svg version="1.0" xmlns="http://www.w3.org/2000/svg"
 width="1536.000000pt" height="640.000000pt" viewBox="0 0 1536.000000 640.000000"
 preserveAspectRatio="xMidYMid meet">

<g transform="translate(0.000000,640.000000) scale(0.100000,-0.100000)"
fill="#000000" stroke="none">
<path d="M0 5244 l0 -1155 21 -47 c12 -26 28 -60 36 -76 8 -15 10 -25 4 -22
-6 4 -11 0 -11 -9 0 -26 -25 -46 -39 -32 -8 8 -11 -472 -11 -1946 l1 -1957
7679 0 7680 0 0 1864 c0 1482 -3 1865 -12 1869 -10 4 -10 6 0 6 9 1 12 274 12
1331 l0 1330 -910 0 -911 0 -162 -93 c-177 -100 -217 -121 -217 -109 0 5 16
14 35 22 19 7 33 16 30 18 -3 3 23 25 58 49 34 23 84 59 112 78 l50 35 -763 0
c-506 0 -761 -3 -757 -10 3 -5 12 -10 19 -10 15 0 59 -45 76 -79 11 -22 10
-22 -32 7 -23 16 -56 44 -72 61 l-30 31 -186 0 -187 0 4 -32 4 -33 -21 33 -22
32 -89 0 c-65 0 -89 -3 -89 -12 0 -18 46 -197 60 -232 14 -37 7 -43 -13 -12
-17 25 -39 110 -54 201 l-8 50 -128 3 c-70 1 -127 -1 -127 -5 0 -14 14 -29 33
-36 10 -4 17 -17 17 -30 0 -28 14 -42 51 -50 14 -4 26 -12 26 -19 0 -8 3 -26
7 -42 6 -25 5 -28 -11 -21 -10 4 -30 10 -45 13 -16 2 -28 11 -28 18 0 8 -6 14
-13 14 -17 0 -31 30 -47 103 l-13 57 -49 0 c-26 0 -48 -2 -48 -5 0 -2 5 -27
11 -56 9 -42 9 -53 -2 -60 -8 -5 -17 -9 -21 -9 -11 0 -35 51 -42 93 l-7 37
-63 0 c-55 0 -66 -3 -79 -22 l-16 -23 0 23 -1 22 -1372 0 -1373 0 105 -52 c58
-28 114 -53 125 -54 11 -2 30 -4 42 -6 12 -2 52 -30 89 -63 37 -33 71 -61 76
-63 4 -2 8 -10 8 -18 0 -8 4 -14 9 -14 5 0 14 -15 20 -32 9 -28 9 -30 -3 -16
-7 10 -16 15 -19 11 -4 -3 -10 3 -14 13 -8 24 -53 64 -71 64 -8 0 -10 5 -6 12
5 7 2 9 -7 6 -15 -6 -54 16 -54 30 -1 18 -27 52 -40 52 -8 0 -15 5 -15 10 0 6
-5 10 -11 10 -8 0 -8 -5 1 -15 7 -8 18 -15 24 -15 6 0 17 -9 24 -20 7 -11 11
-20 8 -20 -2 0 -41 17 -87 39 -113 52 -257 97 -352 110 -107 15 -276 13 -372
-4 -44 -8 -91 -12 -105 -9 -22 4 -22 3 -5 -5 14 -7 15 -10 5 -10 -8 -1 -26 -4
-40 -6 -22 -5 -23 -4 -5 5 15 7 5 8 -35 3 -30 -3 -66 -7 -80 -8 -82 -6 -391
-148 -369 -170 18 -17 265 51 304 85 11 9 35 25 54 34 36 17 55 21 33 8 -15
-10 -7 -38 13 -46 7 -2 62 0 121 6 60 5 201 8 314 5 221 -6 325 -22 452 -70
185 -71 361 -211 402 -323 10 -27 40 -90 67 -140 27 -50 49 -98 48 -105 0 -8
-9 5 -19 29 -27 59 -78 133 -112 160 -15 13 -25 28 -22 34 4 6 2 8 -4 4 -6 -3
-43 14 -82 40 -208 134 -428 185 -803 185 -314 -1 -467 -25 -500 -80 -9 -16
-17 -31 -17 -33 0 -3 150 -4 333 -4 335 1 449 -7 602 -41 70 -15 271 -95 290
-115 6 -6 -5 -3 -23 6 -19 10 -43 14 -55 11 -17 -5 -19 -4 -7 4 19 13 0 14
-20 1 -13 -9 -13 -11 0 -20 11 -7 7 -10 -18 -10 -20 0 -31 -4 -27 -10 3 -6 2
-10 -4 -10 -17 0 0 -30 18 -31 18 -1 10 -4 -32 -14 -28 -6 -28 -7 -13 -29 13
-21 13 -26 1 -36 -17 -14 -113 -6 -190 16 -79 23 -311 53 -425 56 -105 2 -150
-5 -150 -23 0 -16 42 -27 191 -49 202 -29 247 -42 374 -110 62 -33 115 -60
118 -60 3 0 7 19 9 43 2 33 7 43 23 45 11 1 29 -4 40 -12 19 -14 19 -16 3 -44
-24 -40 -23 -64 5 -90 27 -26 111 -62 143 -62 21 0 87 30 108 50 16 15 37 -2
61 -51 26 -50 33 -75 14 -49 -9 12 -10 12 -5 -3 3 -10 6 -24 6 -30 0 -7 4 -6
10 3 7 10 10 11 11 3 4 -36 20 -63 36 -63 12 0 13 -8 7 -42 -5 -24 -8 -55 -8
-70 1 -18 -4 -28 -14 -28 -10 0 -12 -7 -8 -24 5 -21 3 -23 -15 -19 -11 3 -23
13 -26 22 -25 80 -65 127 -97 115 -8 -3 -30 1 -47 10 -41 20 -48 20 -23 0 19
-15 19 -15 -1 -11 -11 3 -29 8 -40 12 -16 5 -17 5 -5 -4 28 -20 -20 -25 -74
-8 l-51 17 29 -25 c35 -30 28 -32 -24 -5 -48 24 -57 25 -39 3 12 -15 12 -16
-6 -9 -47 19 -87 27 -105 21 -26 -8 -25 -17 6 -48 l25 -25 -23 -8 c-13 -3 -26
-11 -29 -17 -4 -5 -21 -10 -38 -11 -24 -1 -33 -6 -38 -24 -5 -20 -10 -22 -39
-16 -30 5 -33 4 -27 -11 5 -15 2 -17 -14 -13 -11 3 -28 1 -38 -4 -12 -8 -20
-6 -27 3 -6 10 -7 7 -3 -8 8 -27 -15 -32 -35 -8 -9 11 -15 13 -20 5 -4 -7 -44
42 -96 121 -49 73 -101 141 -117 153 -41 31 -50 13 -44 -91 5 -87 32 -341 42
-398 5 -30 5 -30 -10 -7 -9 12 -20 20 -25 17 -5 -3 -18 -1 -29 5 -12 6 -22 6
-25 1 -3 -5 -15 -7 -26 -4 -11 3 -20 0 -20 -6 0 -14 -47 -15 -55 -1 -3 6 -11
10 -16 10 -6 0 -7 -5 -3 -11 12 -20 -40 1 -62 25 -11 13 -36 68 -55 122 -34
98 -34 100 -31 254 1 85 3 187 5 225 l2 70 -35 0 c-65 0 -90 -65 -110 -285 -5
-63 -10 -171 -10 -239 l0 -124 -22 24 c-13 13 -34 25 -48 26 -14 1 -40 4 -57
7 -22 4 -33 2 -33 -7 0 -8 -4 -7 -10 3 -5 8 -10 10 -10 5 0 -7 -15 -9 -36 -7
-59 7 -69 43 -68 247 0 169 0 171 38 285 59 182 58 224 -4 222 -41 -1 -91 -47
-120 -110 -27 -56 -75 -244 -89 -346 -6 -43 -11 -119 -12 -169 0 -61 -3 -85
-9 -72 -6 15 -9 6 -9 -33 -1 -33 -5 -51 -11 -47 -5 3 -10 1 -10 -6 0 -10 -3
-10 -11 -2 -13 13 -49 -13 -49 -35 0 -7 -5 -10 -10 -7 -6 4 -8 11 -5 16 4 5
-2 9 -13 9 -23 0 -52 31 -82 90 -21 39 -24 59 -24 155 1 167 39 331 119 498
58 124 71 170 57 202 -13 27 -56 34 -92 15 -34 -18 -110 -127 -151 -217 -22
-48 -51 -110 -64 -138 -77 -163 -96 -218 -112 -322 -14 -85 -19 -102 -24 -78
-4 17 -7 22 -8 12 0 -10 -5 -16 -10 -13 -5 4 -12 0 -15 -6 -5 -10 -7 -10 -12
0 -8 17 -25 15 -18 -3 4 -8 1 -15 -5 -15 -6 0 -11 7 -11 16 0 8 -4 12 -10 9
-5 -3 -10 1 -10 10 0 9 -4 14 -9 11 -14 -9 -19 100 -10 214 13 162 47 257 152
424 94 150 102 196 36 196 -42 0 -105 -62 -206 -202 -130 -181 -185 -313 -212
-508 -16 -111 -28 -170 -31 -145 -1 12 -7 1 -15 -25 -8 -28 -13 -36 -14 -22
-1 12 -7 22 -15 22 -8 0 -18 14 -21 31 -5 23 -9 28 -16 18 -7 -12 -9 -11 -9 1
0 11 -3 10 -11 -4 -10 -16 -14 -11 -32 40 -27 75 -28 202 -2 289 21 72 72 176
130 265 23 36 58 94 77 130 19 36 47 86 61 111 l27 46 -24 13 c-21 11 -28 10
-54 -9 -35 -24 -88 -87 -155 -182 -25 -37 -91 -117 -146 -178 -54 -62 -112
-138 -129 -169 -45 -86 -82 -199 -89 -269 -3 -35 -8 -63 -10 -63 -25 0 -53 89
-53 171 0 21 -5 41 -11 45 -18 11 -3 115 29 197 26 68 129 229 195 307 27 32
133 146 225 243 33 35 34 37 13 37 -42 0 -184 -123 -223 -193 -7 -13 -39 -54
-70 -92 -249 -306 -279 -352 -318 -471 l-28 -86 -17 52 c-37 113 -1 276 110
501 82 164 132 239 214 318 74 71 55 77 -34 11 -27 -21 -99 -63 -160 -94 -165
-85 -349 -218 -402 -289 -59 -81 -102 -173 -110 -235 -3 -28 -10 -52 -14 -52
-5 0 -16 25 -24 55 -15 51 -15 61 1 132 9 43 22 93 30 110 13 34 111 136 139
147 9 3 14 10 11 15 -3 5 4 11 17 15 26 7 91 65 82 74 -3 4 -9 2 -13 -4 -9
-13 -75 -28 -67 -15 3 5 0 13 -6 17 -8 4 -9 3 -5 -4 4 -8 0 -12 -11 -12 -11 0
-24 -5 -30 -11 -16 -16 -67 35 -60 60 3 11 1 19 -3 18 -4 -1 -8 1 -9 6 -3 21
0 28 11 25 7 -3 21 5 31 16 10 12 16 15 12 8 -5 -10 -1 -10 19 0 14 6 26 17
26 24 0 20 111 84 147 84 17 0 35 5 38 10 8 12 9 12 -78 -1 -40 -6 -85 -18
-102 -26 -47 -24 -113 -97 -145 -160 -37 -71 -38 -59 -4 43 44 136 90 197 160
210 40 7 277 -24 282 -37 6 -14 179 -11 288 6 110 17 206 19 274 5 54 -10 66
-5 19 9 -31 8 -31 9 -9 11 14 1 30 1 35 0 29 -6 108 -4 113 4 3 5 0 6 -7 2 -7
-5 -10 -2 -9 6 2 7 -3 12 -10 10 -8 -1 -11 2 -6 9 5 9 15 3 32 -17 14 -16 33
-29 42 -30 9 -1 32 -4 52 -8 l36 -7 -30 58 c-42 82 -44 83 -104 83 -56 0 -63
-6 -41 -30 6 -8 0 -5 -14 8 l-25 22 -2767 0 -2767 0 0 -1156z m13985 1131
c-22 -8 -41 -15 -43 -15 -2 0 -1 -4 2 -9 7 -11 -103 -53 -116 -44 -6 3 -8 2
-5 -4 3 -5 -23 -23 -58 -38 -35 -16 -63 -31 -61 -32 2 -2 36 5 76 16 39 11 99
23 133 25 52 5 44 2 -48 -18 -113 -25 -261 -73 -515 -169 -214 -80 -357 -145
-443 -202 -15 -9 -27 -15 -27 -12 0 2 33 26 73 53 39 26 74 51 77 54 3 4 91
49 195 100 105 51 206 101 226 111 20 11 45 19 55 19 9 0 14 3 11 6 -15 15
245 114 299 114 22 0 26 3 14 10 -11 7 -7 10 17 10 38 0 65 9 58 20 -3 5 4 6
14 3 11 -3 28 0 38 6 10 6 29 10 43 10 20 0 17 -3 -15 -14z m-1960 -5 c3 -5
-3 -10 -14 -10 -12 0 -21 5 -21 10 0 6 6 10 14 10 8 0 18 -4 21 -10z m-7815
-31 c0 -13 -48 -11 -56 3 -4 7 -3 8 4 4 7 -4 12 -3 12 2 0 6 9 8 20 5 11 -3
20 -9 20 -14z m7625 -119 c0 -111 -1 -117 -13 -82 -15 42 -6 202 12 202 1 0 1
-54 1 -120z m2232 74 c-3 -3 -12 -4 -19 -1 -8 3 -5 6 6 6 11 1 17 -2 13 -5z
m-44 -11 c-7 -2 -21 -2 -30 0 -10 3 -4 5 12 5 17 0 24 -2 18 -5z m-11228 -23
c3 -5 1 -10 -4 -10 -6 0 -11 5 -11 10 0 6 2 10 4 10 3 0 8 -4 11 -10z m32 -59
c3 -39 2 -39 -20 7 -15 31 -15 33 1 30 11 -2 17 -15 19 -37z m11278 -27 c-30
-14 -29 -14 20 -9 37 4 -1 -12 -150 -64 -734 -253 -781 -272 -901 -355 -35
-25 -64 -41 -64 -36 0 6 3 10 8 10 4 0 27 18 52 41 46 41 156 110 207 130 80
32 159 59 171 59 12 0 50 16 170 72 35 16 77 30 92 30 16 1 27 4 25 8 -3 4 7
8 22 8 15 0 29 5 31 11 2 6 14 11 27 11 13 0 27 5 30 11 4 6 13 8 20 5 7 -2
24 2 38 9 37 19 136 55 150 55 7 -1 1 -7 -13 -16 -25 -15 -25 -15 -2 -8 13 3
33 15 43 25 10 10 27 19 37 18 11 0 7 -5 -13 -15z m-3550 -43 l40 -9 -40 0
c-22 0 -49 3 -60 8 l-20 9 20 0 c11 0 38 -4 60 -8z m3769 -56 c-10 -8 -25 -15
-32 -15 -17 0 -220 -139 -312 -214 -102 -83 -315 -295 -381 -381 -30 -38 -84
-116 -119 -172 -36 -56 -66 -100 -68 -98 -2 2 33 74 78 160 99 188 225 368
340 484 78 79 97 92 240 165 85 44 149 72 141 63 -7 -9 -19 -17 -25 -17 -7 0
-21 -7 -32 -15 -16 -12 -11 -12 31 1 28 9 68 25 90 35 50 22 77 25 49 4z
m-2067 -132 c-5 -7 -20 -13 -33 -13 -25 0 -43 27 -70 102 l-14 40 64 -58 c46
-43 60 -62 53 -71z m-9107 76 c0 -10 -4 -20 -9 -23 -10 -7 -21 17 -21 46 0 17
3 18 15 8 8 -7 15 -21 15 -31z m8658 -45 c34 -17 42 -34 16 -34 -24 0 -54 19
-54 35 0 18 0 18 38 -1z m-8642 -71 c-10 -11 -26 18 -25 47 0 24 1 23 16 -7 9
-18 13 -36 9 -40z m2160 12 c-36 -19 -42 -19 -26 0 7 8 22 15 34 15 18 0 17
-2 -8 -15z m8464 -19 c0 -2 -44 -23 -97 -47 -292 -127 -431 -210 -567 -338
l-49 -46 30 40 c72 94 187 184 333 261 94 50 238 108 262 107 11 -1 16 3 12 9
-5 7 -2 9 7 6 8 -3 23 -2 34 3 23 9 35 11 35 5z m770 -1 c0 -3 -15 -14 -32
-25 -39 -24 -35 -25 22 -5 63 22 62 18 -5 -16 -33 -17 -62 -35 -63 -40 -2 -5
-8 -7 -13 -3 -5 3 -9 0 -9 -5 0 -6 -9 -11 -21 -11 -11 0 -17 -5 -14 -10 3 -6
-8 -18 -25 -28 -76 -41 -57 -38 45 9 156 71 215 94 215 84 0 -3 -44 -26 -97
-52 -54 -26 -165 -88 -248 -138 -82 -50 -186 -111 -230 -135 -105 -57 -172
-103 -297 -202 -57 -45 -94 -71 -83 -58 18 21 144 133 191 170 79 62 149 121
209 175 99 88 169 143 242 187 66 40 79 45 67 27 -4 -7 1 -7 16 1 18 10 20 14
9 22 -11 8 -10 9 4 4 10 -3 37 7 65 24 54 33 52 32 52 25z m-11213 -57 c-3 -8
-6 -5 -6 6 -1 11 2 17 5 13 3 -3 4 -12 1 -19z m11463 12 c-8 -5 -22 -9 -30 -9
-10 0 -8 3 5 9 27 12 43 12 25 0z m-11222 -235 c67 -120 110 -185 127 -194 15
-8 5 -9 -41 -5 -49 5 -70 2 -109 -15 -57 -25 -56 -25 -49 -6 4 8 -1 17 -10 21
-9 3 -13 10 -10 15 3 5 -2 9 -12 9 -13 0 -14 3 -4 15 10 12 10 15 -3 15 -8 0
-28 7 -43 15 -16 8 -24 15 -18 15 7 0 3 33 -12 97 -26 105 -23 119 23 125 19
2 27 10 30 28 4 27 20 41 40 33 8 -3 13 2 14 13 0 11 13 -19 30 -66 16 -47 37
-99 47 -115z m11102 184 c-12 -9 -11 -10 6 -6 29 6 26 -8 -15 -66 -24 -35 -36
-46 -44 -38 -6 6 -19 11 -29 11 -22 0 -22 3 -3 41 9 16 30 39 48 49 33 21 63
28 37 9z m-4776 -119 c3 -8 8 -20 11 -25 3 -6 -10 -28 -29 -50 -31 -35 -33
-40 -18 -51 14 -10 14 -14 3 -28 -17 -20 -35 -20 -51 -1 -9 11 -10 18 -1 29 9
10 8 16 -4 26 -8 7 -15 21 -15 31 0 19 37 89 54 101 12 8 43 -11 50 -32z
m-6070 -11 c12 -11 23 -45 32 -95 15 -84 11 -114 -15 -138 -16 -15 -19 -15
-33 1 -45 51 -93 228 -69 257 14 17 51 6 85 -25z m-2255 -5 c9 -8 -65 -2 -84
7 -13 6 -4 7 30 3 28 -4 52 -8 54 -10z m1647 -153 c60 -5 98 -9 84 -11 -21 -2
-20 -4 9 -9 l35 -6 -42 -27 c-23 -16 -48 -25 -57 -22 -14 6 -14 8 2 20 16 13
14 14 -21 8 -21 -4 -57 -7 -80 -8 -28 0 -49 -8 -66 -23 -14 -13 -27 -23 -30
-23 -3 0 -14 -13 -23 -30 -21 -35 -54 -32 -36 3 26 51 -56 -59 -95 -126 -15
-27 -30 -46 -33 -43 -3 3 -14 1 -24 -5 -26 -13 -25 9 5 92 44 126 103 185 204
205 17 4 34 13 37 22 5 13 8 14 14 3 5 -8 46 -15 117 -20z m-1182 -16 c-4 -9
0 -15 7 -16 8 0 -4 -7 -26 -16 -66 -26 -165 -76 -176 -89 -19 -23 11 -49 77
-68 36 -10 67 -23 70 -27 5 -9 -29 -14 -76 -11 -22 2 -21 0 10 -15 32 -15 33
-17 12 -20 -12 -3 -20 -9 -17 -14 14 -21 -89 -12 -148 13 -35 15 -71 21 -135
22 l-87 1 -18 55 c-10 30 -29 66 -42 80 -13 14 -31 42 -40 63 -13 32 -13 37
-1 37 17 0 136 -143 136 -164 0 -17 60 -30 74 -16 8 8 6 9 -6 5 -10 -4 -18 -3
-18 3 0 11 41 47 114 101 42 31 49 32 75 21 27 -11 36 -9 90 20 33 18 75 36
93 40 18 4 34 8 35 9 1 1 0 -6 -3 -14z m6643 -31 c70 -15 131 -52 119 -73 -4
-5 -1 -11 4 -13 6 -2 -9 -16 -34 -32 -26 -16 -46 -35 -46 -42 0 -17 -17 -18
-23 -1 -3 6 -6 1 -6 -13 -1 -14 -8 -43 -15 -65 -14 -40 -15 -40 -25 -15 -5 14
-11 21 -12 15 -1 -5 -3 -14 -4 -20 -2 -5 -3 -15 -4 -22 0 -6 -8 -19 -17 -27
-8 -9 -16 -26 -18 -39 -1 -13 -5 -27 -8 -32 -3 -6 -9 -25 -13 -42 -13 -61 -25
-34 -25 55 0 86 -17 184 -45 253 -11 29 -12 46 -3 75 18 69 21 70 175 38z
m-4797 -99 c14 -8 21 -14 15 -14 -5 0 -21 6 -35 14 -14 8 -20 14 -15 14 6 0
21 -6 35 -14z m7275 -103 c36 -15 91 -60 83 -68 -14 -13 -128 66 -128 89 0 8
3 9 8 1 4 -5 21 -16 37 -22z m241 -100 c-6 -6 -26 43 -25 61 0 7 7 -3 15 -22
8 -18 13 -36 10 -39z m-7330 9 c-3 -5 7 -11 23 -14 25 -5 112 -55 176 -102 24
-17 30 -54 10 -61 -7 -3 -25 2 -39 11 -22 14 -40 16 -115 10 -48 -4 -118 -17
-155 -29 -36 -12 -66 -21 -66 -20 0 2 14 11 32 20 27 14 29 18 15 26 -10 5
-23 6 -30 2 -7 -5 -6 0 3 11 14 17 13 18 -2 12 -11 -4 -15 -2 -12 7 3 9 -4 12
-25 11 -25 -1 -29 1 -20 12 9 10 8 13 -2 14 -10 0 -11 2 -1 6 6 2 12 11 12 19
0 19 80 55 144 64 28 4 52 8 54 9 2 0 1 -3 -2 -8z m5481 3 c-3 -3 -12 -4 -19
-1 -8 3 -5 6 6 6 11 1 17 -2 13 -5z m2350 -50 c-3 -3 -12 -4 -19 -1 -8 3 -5 6
6 6 11 1 17 -2 13 -5z m-10475 -15 c29 -7 62 -17 73 -24 11 -7 44 -18 74 -25
101 -24 276 -103 266 -121 -4 -5 -16 -7 -27 -3 -14 4 -18 2 -14 -5 9 -14 -10
-14 -37 1 -21 10 -21 10 -7 -7 14 -17 13 -17 -5 -8 -11 6 -33 13 -50 17 l-30
7 30 -21 c25 -17 27 -20 10 -20 l-20 -1 20 -15 c20 -16 20 -16 -2 -9 -14 4
-23 2 -23 -4 0 -6 6 -11 12 -11 7 0 3 -7 -9 -15 -18 -12 -43 -14 -138 -9 -107
7 -118 9 -132 30 -8 13 -12 27 -9 32 3 5 7 20 10 35 4 23 1 27 -17 27 -19 0
-51 32 -52 52 0 4 -5 12 -12 19 -10 10 -8 21 9 51 12 21 23 38 24 38 2 0 27
-5 56 -11z m11729 -19 c-18 -4 -37 -13 -41 -19 -10 -17 -105 -51 -143 -51 -17
0 -52 -10 -77 -22 l-45 -21 30 -7 c17 -4 26 -9 20 -10 -5 -1 1 -6 15 -10 23
-7 23 -8 -10 -10 -19 -1 -39 -2 -43 -1 -4 1 -10 -6 -13 -14 -4 -8 -10 -15 -16
-15 -5 0 -6 5 -3 10 9 14 -8 13 -23 -2 -7 -7 -12 -8 -12 -3 0 5 -22 -13 -49
-39 -38 -37 -58 -50 -87 -53 -21 -2 -45 -9 -52 -16 -12 -10 -14 -8 -8 10 7 20
5 21 -24 13 -20 -6 -30 -5 -30 2 0 6 -6 6 -15 -2 -8 -7 -31 -13 -51 -15 l-37
-2 39 36 c22 20 53 48 71 62 l31 26 -70 6 c-39 3 -84 4 -102 1 -25 -3 -27 -3
-11 5 11 5 59 10 106 10 74 1 100 6 176 36 50 19 130 41 179 50 49 9 130 24
179 34 50 11 104 19 120 19 l30 0 -34 -8z m-3666 -10 c-3 -5 -12 -10 -18 -10
-7 0 -6 4 3 10 19 12 23 12 15 0z m1259 -35 c82 -19 97 -25 91 -36 -3 -4 -12
-6 -20 -2 -17 6 -20 -8 -5 -23 16 -16 1 -44 -24 -44 -11 0 -33 6 -48 14 -35
19 -88 30 -88 19 0 -5 24 -20 53 -33 49 -22 50 -24 24 -27 l-29 -4 44 -40 c23
-21 39 -39 34 -39 -4 0 -1 -11 8 -25 9 -14 12 -25 7 -25 -5 0 -13 5 -16 10 -3
6 -10 10 -16 10 -18 0 -9 -16 19 -33 39 -24 92 -73 92 -85 0 -6 8 -17 18 -24
21 -16 23 -88 1 -88 -5 0 -7 5 -4 10 3 6 4 10 1 10 -3 0 -12 -16 -20 -35 -10
-23 -22 -35 -35 -35 -10 0 -21 -6 -23 -12 -3 -9 -12 -8 -32 5 -17 12 -41 50
-69 110 -23 51 -72 152 -109 225 -38 73 -68 137 -68 142 0 15 37 12 70 -5 18
-9 31 -11 35 -5 3 6 -1 12 -9 15 -9 3 -24 7 -33 10 -33 11 6 29 59 28 29 -1
45 1 36 4 -10 2 -18 9 -18 14 0 11 -3 12 74 -6z m-5284 -1 c0 -8 -19 -13 -24
-6 -3 5 1 9 9 9 8 0 15 -2 15 -3z m-984 -18 c0 -1 12 -16 27 -34 15 -19 27
-42 27 -53 0 -19 -1 -20 -29 -3 -16 10 -35 29 -42 43 -7 14 -20 34 -28 44 -15
17 -14 18 14 11 17 -4 30 -7 31 -8z m5204 -22 c0 -4 -19 -28 -43 -53 -23 -25
-52 -59 -64 -76 -20 -27 -22 -28 -23 -9 0 24 56 102 92 127 25 17 38 21 38 11z
m3905 -4 c18 -8 17 -9 -6 -9 -61 -2 -282 -107 -359 -171 -58 -47 -87 -62 -129
-67 -18 -2 -43 -9 -54 -15 -17 -9 -19 -8 -14 6 7 17 -2 19 -59 16 -79 -4 -38
43 98 115 49 25 124 57 168 71 44 14 80 29 80 34 0 4 8 6 18 4 9 -2 40 2 67
10 56 16 159 19 190 6z m-5865 -10 c0 -5 -7 -10 -15 -10 -8 0 -15 5 -15 10 0
6 7 10 15 10 8 0 15 -4 15 -10z m1998 -42 c-2 -5 -7 -9 -11 -9 -4 1 -14 1 -22
1 -8 0 -15 4 -15 9 0 5 11 9 25 9 14 0 24 -5 23 -10z m197 -143 c4 -38 9 -82
10 -97 1 -15 11 -38 22 -50 11 -13 33 -45 48 -73 45 -82 64 -104 113 -130 65
-34 72 -41 129 -125 76 -113 132 -231 147 -310 6 -30 5 -32 -7 -16 -9 12 -29
20 -55 22 -23 1 -47 6 -53 9 -8 6 -8 2 0 -14 10 -18 9 -20 -5 -14 -12 5 -15 3
-9 -6 6 -10 3 -11 -14 -1 -17 9 -26 9 -37 0 -7 -7 -11 -16 -8 -21 3 -5 -6 -9
-21 -9 -25 0 -25 0 -10 -37 8 -20 13 -38 11 -41 -3 -2 7 -15 22 -29 15 -14 27
-28 27 -31 0 -4 5 -6 12 -4 7 2 13 -2 13 -7 0 -22 73 -30 94 -11 18 18 44 -28
49 -91 3 -35 12 -86 20 -114 10 -36 12 -69 7 -115 -8 -72 -8 -71 -16 15 -7 86
-30 140 -74 177 -54 46 -258 150 -367 187 -126 43 -219 53 -498 55 l-240 1
-52 -27 c-66 -35 -93 -70 -93 -120 0 -69 25 -104 121 -169 49 -32 93 -59 99
-59 5 0 10 -7 10 -17 0 -9 3 -14 6 -10 4 3 32 -7 63 -22 31 -16 76 -39 101
-51 167 -84 300 -160 300 -172 0 -4 7 -8 15 -8 8 0 20 -9 27 -19 6 -11 18 -17
26 -13 10 3 13 1 8 -6 -4 -8 -2 -10 7 -6 8 3 17 -2 21 -11 3 -9 10 -14 15 -10
6 3 8 -3 6 -14 -2 -13 3 -22 16 -26 35 -12 19 -21 -33 -19 -73 2 -250 66 -653
235 -85 36 -218 84 -561 199 -143 48 -284 100 -313 115 -29 14 -50 21 -46 15
19 -30 283 -130 535 -202 45 -13 276 -95 315 -113 384 -168 505 -224 566 -260
69 -41 106 -53 63 -20 -19 15 -19 15 1 8 23 -7 146 -72 158 -83 5 -4 4 -11 -2
-14 -6 -4 -11 -2 -11 3 0 6 -5 11 -11 11 -8 0 -8 -4 0 -14 7 -8 21 -12 31 -9
21 6 29 -12 9 -19 -7 -2 -4 -10 7 -18 16 -14 17 -13 11 3 -10 26 4 20 53 -24
27 -24 52 -38 62 -35 10 2 21 0 24 -5 3 -5 -2 -9 -11 -9 -9 0 -13 -5 -10 -10
3 -6 17 -7 30 -4 19 5 33 -3 64 -34 23 -22 41 -36 41 -31 0 6 5 7 10 4 6 -4 8
-16 5 -28 -5 -17 -4 -19 4 -7 7 11 17 -1 41 -55 17 -39 39 -86 47 -105 9 -19
43 -63 76 -97 33 -35 56 -63 51 -63 -5 -1 7 -9 26 -20 43 -23 36 -25 -15 -4
-21 8 -72 22 -113 30 -89 17 -107 29 -242 159 -58 55 -130 115 -160 131 -30
17 -103 60 -162 96 -58 37 -109 64 -112 61 -3 -4 -6 -1 -6 4 0 6 -21 22 -47
35 -27 14 -66 35 -88 48 -86 49 -363 190 -412 209 -49 19 -53 19 -51 3 5 -63
-5 -62 -107 11 -124 89 -194 106 -229 55 -20 -28 -6 -54 50 -97 25 -19 62 -54
82 -79 45 -55 167 -150 296 -231 54 -34 104 -68 112 -76 8 -8 36 -31 62 -52
26 -21 53 -44 60 -50 7 -7 17 -13 20 -13 4 0 18 -10 32 -23 14 -12 41 -33 60
-47 35 -24 52 -40 103 -100 19 -22 24 -36 17 -40 -8 -5 -6 -9 5 -14 9 -3 15
-14 13 -23 -3 -14 -12 -17 -43 -15 -30 2 -36 0 -25 -7 11 -7 -1 -9 -40 -4 -69
7 -77 13 -19 13 32 0 40 3 29 10 -12 8 -10 10 10 10 14 0 20 4 15 9 -11 9
-131 39 -181 44 -17 2 -37 8 -44 12 -9 5 -11 4 -6 -3 16 -26 -13 -8 -99 59
-157 124 -495 374 -495 366 0 -2 46 -39 103 -82 56 -44 104 -82 107 -85 3 -3
48 -38 100 -78 53 -39 127 -97 165 -129 39 -32 93 -75 120 -95 48 -35 210
-202 229 -236 5 -9 10 -30 11 -46 1 -17 7 -44 14 -60 8 -21 9 -32 1 -40 -8 -8
-13 -7 -19 2 -7 12 -24 18 -53 21 -5 1 -8 8 -8 17 0 9 -5 12 -12 8 -6 -4 -17
1 -25 11 -7 11 -13 16 -13 11 0 -4 -11 3 -24 16 -13 13 -32 30 -42 39 -11 9
-32 31 -47 48 -16 17 -34 31 -40 31 -7 1 -23 15 -37 33 -14 17 -37 43 -52 58
-16 15 -28 33 -28 41 0 11 -2 11 -9 -1 -7 -10 -12 -8 -25 10 -9 13 -16 19 -16
14 0 -4 -10 0 -22 11 -13 11 -43 33 -66 49 -24 16 -85 67 -134 114 -183 173
-342 288 -412 297 -39 6 -48 3 -70 -19 -31 -31 -32 -57 -6 -116 38 -84 167
-222 544 -581 100 -96 186 -211 186 -250 0 -15 -42 -12 -64 5 -10 8 -24 12
-30 8 -6 -3 -8 -3 -4 2 8 8 -73 65 -123 85 -41 17 -36 32 7 24 25 -4 35 -3 30
4 -7 12 -91 42 -117 42 -10 0 -19 4 -21 9 -5 14 -68 24 -68 11 0 -6 5 -8 12
-4 6 4 8 3 4 -4 -3 -6 -2 -13 4 -17 5 -3 10 -11 10 -18 0 -6 -19 9 -41 33
-230 248 -879 908 -879 894 0 -19 56 -85 108 -129 75 -64 446 -436 547 -550
43 -50 92 -103 107 -120 22 -24 25 -31 12 -33 -11 -3 -12 -7 -4 -17 8 -9 6
-14 -6 -19 -19 -7 -34 9 -34 35 0 9 -8 23 -18 32 -17 16 -18 15 -14 -17 2 -19
-1 -37 -7 -40 -7 -5 -11 2 -11 18 0 14 -4 26 -10 26 -5 0 -10 -9 -10 -20 0
-11 -4 -20 -10 -20 -5 0 -10 6 -10 13 0 7 -9 18 -20 25 -11 7 -20 19 -20 28 0
8 -12 40 -26 71 -41 86 -141 175 -243 214 -21 9 -23 8 -11 -7 12 -13 12 -15
-1 -14 -31 5 -60 -1 -54 -10 3 -5 2 -10 -4 -10 -5 0 -10 -8 -10 -17 0 -10 0
-36 -1 -59 -4 -84 23 -147 96 -224 59 -63 264 -339 264 -356 0 -8 5 -14 11
-14 6 0 9 -6 6 -14 -3 -8 1 -22 8 -33 20 -26 19 -30 -15 -30 -20 0 -26 3 -18
9 10 6 9 8 -4 8 -27 0 -70 23 -57 30 6 4 -8 10 -30 14 -23 3 -41 10 -41 15 0
6 13 6 32 0 17 -5 34 -7 36 -4 4 4 -22 16 -137 62 -51 21 -60 28 -46 36 9 5
36 7 59 4 22 -3 33 -3 24 0 -10 2 -18 8 -18 12 0 5 -20 14 -45 21 -25 7 -50
21 -55 31 -6 11 -18 16 -30 14 -11 -2 -20 0 -20 6 0 5 6 9 13 9 6 1 -1 7 -18
15 -30 13 -30 13 -5 15 20 1 18 4 -15 14 -22 7 -44 11 -49 8 -5 -3 -6 0 -2 6
4 7 19 12 33 12 37 0 24 9 -18 12 -18 1 -37 7 -41 12 -4 6 -10 8 -13 4 -7 -6
40 -72 170 -238 l66 -85 -66 70 c-36 39 -151 180 -255 315 -105 135 -201 257
-214 273 -13 15 -21 27 -18 27 3 0 -4 10 -15 23 -11 12 -33 41 -48 65 -15 23
-30 40 -32 38 -6 -6 60 -106 69 -106 5 0 8 -7 8 -15 0 -9 7 -18 15 -21 8 -4
12 -11 8 -17 -3 -5 -1 -7 4 -4 6 4 18 -9 27 -28 9 -19 22 -40 29 -47 65 -69
131 -165 133 -194 1 -24 -3 -34 -13 -34 -8 0 -11 5 -7 12 5 7 1 9 -13 6 -15
-4 -20 -1 -19 11 1 10 -7 16 -21 16 -11 0 -25 3 -29 7 -20 20 -42 7 -50 -29
-4 -21 -8 -44 -7 -51 0 -6 -3 -12 -8 -12 -14 0 -10 -78 5 -108 29 -56 69 -75
126 -58 24 7 24 6 6 -8 -11 -9 -34 -16 -50 -16 l-31 0 35 -16 c19 -9 42 -19
50 -23 22 -11 90 -114 85 -129 -2 -6 0 -12 5 -12 6 0 10 -9 10 -21 0 -13 4
-18 13 -13 8 5 7 2 -2 -9 -12 -15 -12 -19 5 -31 35 -26 8 -26 -41 0 -39 20
-43 25 -20 20 l30 -6 -25 15 c-14 8 -19 14 -11 15 25 0 -1 17 -59 36 -48 16
-51 19 -27 22 16 2 35 -2 43 -9 8 -6 14 -7 14 -2 0 6 -29 23 -65 38 -69 29
-81 41 -27 26 41 -12 42 -3 2 10 -16 6 -30 15 -30 21 0 5 -5 6 -12 2 -6 -4 -8
-3 -5 3 7 12 -19 71 -28 63 -3 -3 -12 8 -20 23 -9 19 -10 25 -2 21 7 -4 5 1
-4 12 -9 10 -22 33 -30 51 -10 24 -16 29 -26 21 -10 -8 -13 -6 -13 6 0 9 -4
16 -10 16 -5 0 -15 18 -21 40 -9 28 -16 37 -23 30 -5 -5 -15 -10 -20 -10 -6 0
-5 4 3 9 9 6 10 11 2 15 -6 4 -11 2 -11 -5 0 -7 -7 -4 -16 7 -14 18 -14 18 -2
-5 33 -61 36 -64 41 -50 2 8 3 5 1 -5 -2 -10 19 -53 46 -95 26 -42 81 -134
120 -206 40 -71 79 -140 88 -152 8 -13 12 -23 9 -23 -6 0 -98 142 -210 325
-47 77 -93 149 -102 160 -20 24 -9 0 17 -37 19 -27 19 -28 1 -28 -10 0 -14 -4
-8 -8 6 -4 11 -14 13 -22 2 -8 12 -24 22 -35 21 -23 8 -43 -24 -37 -10 2 -16
0 -12 -6 6 -10 -25 -22 -61 -22 -15 0 -23 6 -24 18 -1 9 -5 4 -8 -13 -5 -20
-3 -36 7 -47 14 -16 13 -18 -5 -18 -13 0 -23 8 -26 21 -4 16 -11 19 -26 14
-12 -4 -21 -2 -21 4 0 6 -7 11 -15 11 -8 0 -12 6 -9 14 3 7 -2 16 -10 19 -9 4
-16 14 -16 22 0 9 5 13 11 9 8 -4 8 -1 1 13 -11 21 -1 63 45 181 13 35 23 66
20 68 -3 4 -86 -172 -135 -287 l-20 -45 34 -85 c39 -96 94 -257 94 -273 -1 -6
-23 45 -50 114 -27 69 -56 129 -63 135 -8 5 -12 15 -10 21 2 6 -2 25 -10 42
l-13 32 -43 -80 c-23 -44 -44 -80 -46 -80 -2 0 9 28 24 63 47 104 92 213 94
228 2 8 7 21 12 29 8 13 7 13 -10 0 -17 -14 -18 -13 -12 3 4 11 3 16 -3 12 -6
-3 -10 -12 -10 -20 0 -16 -32 -13 -38 3 -2 6 -11 8 -20 5 -15 -6 -15 -5 -3 10
7 9 20 17 28 17 8 0 11 5 8 10 -3 6 1 10 9 10 9 0 16 6 16 13 0 8 4 7 11 -3 9
-13 10 -12 5 3 -3 9 -2 17 2 17 5 0 17 7 28 15 19 15 19 15 -1 8 -72 -24 -641
-319 -727 -377 -16 -10 -28 -16 -28 -12 0 18 315 195 558 314 160 78 212 107
208 118 -4 10 -2 13 7 7 25 -16 37 -12 24 8 -7 11 -14 14 -18 8 -3 -6 -9 -10
-13 -9 -8 2 -84 -9 -108 -16 -12 -4 -18 0 -18 10 0 8 10 16 23 18 12 2 21 9
20 15 -2 7 4 10 12 7 9 -4 15 0 15 9 0 8 6 18 13 21 6 3 -4 4 -23 1 l-35 -5
30 14 c17 8 29 18 28 23 -1 4 8 13 20 20 12 7 18 12 13 13 -5 0 -3 7 4 15 11
13 15 13 22 3 7 -10 9 -10 5 2 -2 8 -12 14 -21 14 -14 -2 -15 1 -4 14 12 13
10 14 -10 3 -29 -15 -134 -10 -140 7 -3 9 3 10 25 1 42 -16 109 -2 143 29 54
49 43 107 -22 122 -30 7 -30 8 -7 9 38 1 46 28 8 28 -15 0 -26 -4 -24 -8 3 -4
-8 -9 -25 -11 -16 -2 -27 -1 -24 4 3 4 0 8 -5 8 -6 0 -11 -3 -11 -7 0 -5 -21
-9 -46 -10 -25 -1 -52 -7 -59 -13 -9 -7 -16 -6 -26 6 -11 14 -10 18 6 31 12 9
14 13 5 10 -8 -2 -23 0 -34 5 -12 7 -16 7 -12 0 4 -6 -17 -17 -49 -27 -50 -14
-57 -14 -71 0 -9 8 -23 15 -32 15 -15 0 -15 -2 -2 -10 12 -7 8 -10 -15 -10
-16 0 -41 -3 -55 -6 -48 -10 126 68 340 153 216 86 351 142 403 169 16 8 34
11 39 7 7 -4 8 -1 3 7 -6 10 -4 12 11 6 14 -5 16 -4 8 4 -9 9 -19 8 -41 -4
-17 -8 -113 -47 -214 -86 -101 -39 -229 -89 -284 -110 -136 -53 -426 -173
-623 -259 -90 -39 -166 -71 -170 -71 -3 0 3 7 14 16 18 15 18 15 -6 10 -62
-15 -76 -17 -55 -8 18 8 17 9 -7 15 -20 5 -26 12 -23 27 3 17 -2 20 -28 20
-21 0 -27 3 -19 9 7 4 24 6 38 3 19 -3 24 0 24 16 0 11 -3 22 -7 25 -5 2 -3 3
3 1 7 -1 22 5 35 13 13 10 19 11 14 4 -4 -7 20 2 53 20 33 19 58 37 55 42 -2
4 -1 7 4 6 24 -4 43 2 37 12 -4 8 3 9 25 4 24 -5 31 -3 31 9 0 10 9 16 26 16
14 0 23 4 19 10 -3 6 5 10 19 10 14 0 28 5 31 10 3 6 15 10 26 10 11 0 17 5
14 10 -3 6 2 10 13 10 10 0 37 9 60 20 22 11 50 20 62 20 11 0 20 5 20 10 0 6
14 10 32 10 17 0 28 3 24 7 -10 10 71 33 117 33 22 0 36 4 32 10 -3 5 13 14
35 21 22 7 40 16 40 20 0 5 7 6 14 3 8 -3 30 2 48 12 58 30 67 34 81 34 18 0
139 74 173 105 24 22 28 23 47 10 28 -20 53 -19 104 4 51 24 83 55 83 81 0 29
-66 70 -115 70 -29 0 -36 3 -25 10 12 8 11 10 -7 10 -13 0 -23 4 -23 8 0 5
-27 5 -59 0 -39 -6 -73 -6 -97 1 -21 6 -42 7 -48 2 -6 -5 -30 -9 -54 -9 -36
-1 -41 2 -32 13 9 11 7 12 -10 8 -11 -3 -23 -9 -26 -14 -8 -13 -98 -11 -111 2
-9 9 -25 5 -62 -14 -27 -13 -47 -28 -43 -31 3 -4 -1 -4 -10 -1 -16 6 -16 8 0
32 l16 26 -24 -13 c-14 -7 -39 -23 -57 -36 -17 -13 -35 -24 -40 -24 -4 0 1 7
11 15 28 21 12 19 -31 -5 -21 -11 -45 -20 -53 -20 -9 0 -20 -4 -25 -8 -22 -19
-120 -52 -123 -42 -2 5 -8 10 -13 10 -6 0 -7 -5 -3 -11 5 -8 -1 -10 -19 -5
-14 3 -29 2 -32 -4 -3 -5 -11 -10 -17 -10 -7 0 -6 6 2 15 11 13 8 13 -23 0
-46 -19 -53 -19 -37 0 15 18 7 19 -23 4 -12 -7 -35 -12 -51 -11 -19 0 -25 -2
-17 -7 8 -5 -4 -10 -32 -14 -58 -8 -127 -30 -127 -39 0 -5 -11 -8 -25 -8 -35
0 -33 33 3 49 15 8 36 18 47 24 61 33 100 49 167 67 101 27 431 86 618 110 85
11 225 29 310 40 85 11 255 29 377 39 198 18 276 32 259 48 -9 10 -960 -94
-1176 -128 -56 -9 -362 -69 -427 -84 -18 -4 -25 2 -39 35 -10 22 -22 40 -27
40 -4 0 -6 4 -3 9 4 5 2 11 -4 13 -5 1 -11 13 -13 25 -1 11 -8 28 -15 35 -6 8
-9 18 -5 21 3 4 1 13 -5 20 -7 8 -9 17 -5 20 3 4 0 7 -8 7 -8 1 0 7 17 14 53
23 163 36 331 39 90 1 163 6 163 11 0 5 90 6 213 2 203 -7 217 -6 342 19 93
18 134 31 145 44 8 10 43 29 77 41 120 43 107 74 -29 73 -21 0 -35 3 -33 7 3
5 -4 11 -15 15 -11 3 -20 11 -20 16 0 5 -7 9 -17 9 -14 0 -14 3 3 22 10 12 13
18 6 14 -20 -12 -110 -18 -92 -6 12 8 11 10 -7 10 -16 0 -21 4 -17 15 7 17 4
17 -100 15 -41 -1 -66 2 -62 8 3 5 -3 12 -14 15 -11 3 -23 1 -26 -4 -3 -5 -10
-9 -15 -9 -6 0 -7 5 -3 11 5 8 -1 10 -19 7 -14 -3 -32 -1 -39 3 -9 6 -5 9 12
9 20 0 22 2 10 10 -13 8 -12 10 3 10 9 0 17 -4 17 -9 0 -4 21 -6 48 -4 46 5
109 -3 432 -52 348 -54 437 -65 507 -65 119 0 91 16 -40 24 -146 8 -109 2
-732 111 -132 23 -228 35 -388 50 -37 4 -65 10 -62 15 3 5 -3 13 -12 19 -10 5
-15 13 -11 17 4 4 18 0 31 -9 54 -35 128 -29 97 8 -18 22 35 9 93 -23 36 -19
51 -23 54 -14 6 16 28 15 46 -2 7 -8 73 -24 148 -36 74 -11 215 -34 314 -50
277 -45 517 -62 546 -38 20 17 79 104 79 117 0 5 7 16 15 25 10 9 11 17 5 21
-6 4 -15 -8 -21 -25 -6 -17 -16 -29 -21 -28 -6 2 -24 -9 -40 -24 -18 -16 -41
-28 -57 -28 -15 0 -31 -4 -37 -9 -18 -18 -285 -9 -292 10 -2 5 -12 9 -22 9
-11 0 -34 6 -52 14 -18 7 -55 19 -83 25 -27 7 -55 18 -61 26 -6 8 -20 16 -30
16 -17 1 -17 2 -1 6 9 2 17 8 17 13 0 4 26 11 57 15 32 4 69 15 83 25 38 26
68 33 140 31 40 -1 60 2 52 7 -28 18 105 20 238 3 74 -9 148 -15 165 -12 22 3
24 6 10 8 -77 14 -278 71 -384 109 -142 52 -342 136 -336 142 2 2 57 -15 122
-38 435 -154 627 -211 622 -184 -3 18 14 54 22 48 5 -3 9 -1 9 5 0 5 -4 12
-10 16 -16 10 1 34 28 37 41 5 37 26 -7 38 -88 24 -426 177 -581 265 -41 23
-106 59 -145 79 -38 21 -81 49 -95 63 l-25 26 30 -20 c34 -23 418 -211 510
-250 33 -14 117 -54 187 -89 153 -77 173 -79 196 -25 9 22 25 42 36 45 13 3
17 11 13 25 -3 12 -2 21 2 21 4 0 30 22 59 50 l52 50 37 -20 c29 -15 52 -18
98 -15 72 5 112 13 136 25 10 6 25 10 34 10 29 0 7 -17 -40 -30 -46 -13 -75
-33 -33 -23 35 9 11 -10 -30 -24 l-37 -13 48 4 c44 3 63 -6 35 -17 -7 -3 12
-4 42 -2 30 2 44 2 30 -1 -14 -3 -32 -12 -40 -19 -8 -7 -35 -18 -60 -23 -42
-9 -43 -10 -12 -11 34 -1 118 15 252 49 41 10 107 22 145 26 39 5 75 9 80 10
6 0 23 6 38 12 15 7 31 11 35 11 22 -4 42 2 37 11 -4 6 7 10 25 10 17 0 29 4
26 8 -6 11 61 35 74 27 6 -3 13 0 16 8 5 13 67 35 219 76 l70 20 -60 0 c-33 1
-125 -13 -205 -30 -80 -17 -155 -32 -167 -33 -11 0 -19 -4 -16 -8 2 -5 -17 -8
-42 -8 -25 0 -44 -3 -42 -7 3 -5 -10 -9 -28 -10 -57 -3 -31 19 68 59 174 71
236 89 345 98 119 11 259 0 316 -24 66 -28 36 6 -39 44 -69 35 -71 35 -200 34
-120 0 -137 -3 -225 -33 -102 -35 -193 -56 -270 -61 -14 -1 -19 -4 -12 -7 6
-2 10 -9 7 -14 -4 -5 -17 -2 -31 7 -15 10 -24 12 -24 5 0 -6 -8 -11 -17 -11
-17 1 -17 2 0 15 11 7 26 11 35 8 9 -4 13 -2 9 4 -6 9 59 48 208 127 28 14 82
37 120 51 82 29 51 35 -48 9 -73 -19 -121 -41 -256 -117 -57 -32 -109 -56
-116 -53 -7 2 -18 -1 -25 -7 -20 -19 8 33 34 63 19 22 19 23 1 10 -11 -8 -22
-17 -25 -20 -24 -24 -70 -49 -70 -38 0 9 -3 8 -10 -2 -5 -8 -10 -11 -10 -6 0
5 20 29 45 53 44 42 55 63 35 63 -5 0 -10 -4 -10 -10 0 -5 -4 -10 -9 -10 -9 0
-81 -68 -81 -77 0 -2 -7 -11 -15 -19 -19 -20 -19 -15 2 27 9 19 18 41 20 49 1
8 5 29 9 47 5 26 3 31 -13 30 -14 -2 -17 4 -15 26 2 17 -1 27 -9 27 -7 0 -4 6
7 14 10 8 16 18 12 21 -4 4 3 16 15 26 16 13 18 18 7 19 -8 0 6 14 32 31 114
74 367 54 456 -36 45 -45 186 -85 304 -85 27 0 65 -7 85 -15 l36 -15 -6 57
c-4 32 -9 92 -11 133 -4 59 -3 65 3 30 5 -25 12 -76 16 -115z m-4607 31 c3
-40 0 -59 -10 -70 -14 -13 -19 -11 -44 15 -20 21 -24 29 -12 29 13 0 15 9 12
41 -2 23 1 48 8 56 19 24 41 -9 46 -71z m4812 57 c0 -28 -26 -31 -33 -4 -6 23
-3 28 18 28 9 0 15 -10 15 -24z m-8938 5 l58 -12 0 -41 c0 -35 -5 -65 -26
-154 -5 -21 -9 -23 -47 -17 -84 13 -227 50 -216 57 16 10 2 29 -22 29 -10 0
-19 5 -19 10 0 6 5 10 10 10 6 0 10 8 10 18 0 15 10 17 92 14 89 -2 92 -1 60
13 -18 8 -51 19 -73 25 -54 15 -49 28 14 32 l52 3 -55 11 -55 12 79 1 c44 0
106 -4 138 -11z m7008 -58 c6 -11 8 -20 6 -20 -3 0 -10 9 -16 20 -6 11 -8 20
-6 20 3 0 10 -9 16 -20z m5776 -10 c-78 -25 -94 -43 -21 -24 52 14 125 11 110
-4 -13 -13 -99 -41 -108 -35 -6 3 -7 2 -4 -4 4 -6 -17 -24 -46 -42 -38 -23
-44 -25 -24 -8 26 22 27 25 11 31 -16 6 -16 9 -4 17 11 8 9 9 -10 4 -24 -6
-24 -5 -6 9 32 26 11 19 -116 -39 -67 -30 -123 -53 -125 -51 -2 2 52 31 119
64 125 62 227 101 263 101 11 0 -6 -9 -39 -19z m-5790 -22 l17 -33 -23 20
c-13 11 -20 14 -16 8 4 -7 2 -13 -3 -13 -12 0 -15 33 -4 43 10 11 11 9 29 -25z
m-3841 -2 c19 -8 35 -19 35 -24 0 -6 25 -35 55 -66 59 -60 71 -90 33 -81 -134
29 -249 32 -348 9 -36 -8 -76 -17 -90 -20 -48 -10 -96 -26 -158 -55 -34 -16
-69 -29 -77 -29 -8 0 -15 -4 -15 -8 0 -5 -16 -16 -35 -25 -19 -9 -35 -22 -35
-28 0 -9 -3 -9 -14 0 -7 6 -22 9 -32 6 -11 -4 9 7 44 24 34 16 62 32 62 36 0
3 -10 1 -22 -5 -20 -10 -21 -9 -6 3 9 7 30 12 47 11 31 -2 42 9 19 20 -7 3 -3
3 10 0 12 -3 21 -2 20 3 -2 4 0 9 5 10 4 2 20 14 35 28 15 14 32 25 39 25 7 0
13 5 13 11 0 5 5 7 12 3 8 -5 9 -2 5 9 -4 10 -1 17 5 17 6 0 9 2 6 5 -9 10
-58 -17 -51 -28 3 -6 1 -7 -5 -4 -14 9 -43 -3 -36 -14 3 -5 -2 -6 -10 -3 -8 3
-28 -2 -45 -11 -50 -25 -35 -8 19 23 27 16 47 32 43 36 -4 4 1 4 12 0 11 -4
17 -4 13 0 -12 13 33 48 96 74 137 57 282 76 351 48z m5379 -10 c-3 -9 -10
-16 -15 -16 -5 0 -4 9 3 20 14 22 21 20 12 -4z m-4544 -6 c0 -5 -5 -10 -11
-10 -5 0 -7 5 -4 10 3 6 8 10 11 10 2 0 4 -4 4 -10z m-396 -17 c2 -10 7 -37
11 -60 8 -52 -14 -195 -29 -190 -6 2 -19 30 -29 63 -29 95 -14 204 29 204 7 0
15 -8 18 -17z m-1846 -84 l7 -53 19 42 c10 23 22 42 26 42 9 0 3 -87 -7 -104
-16 -28 44 35 85 89 59 78 68 87 48 47 -9 -18 -41 -61 -69 -95 -78 -92 -110
-137 -104 -143 14 -15 127 83 200 174 15 19 27 30 27 26 0 -4 11 3 25 16 46
43 26 9 -42 -71 -37 -44 -81 -89 -99 -99 -17 -11 -38 -28 -45 -38 -11 -14 -11
-15 1 -4 8 6 19 12 24 12 6 0 -11 -22 -37 -48 -46 -47 -62 -80 -32 -69 11 5
13 0 8 -23 -7 -38 0 -38 90 1 40 17 87 37 105 45 17 8 32 12 32 9 0 -8 -201
-105 -217 -105 -11 0 -12 -26 -3 -50 2 -3 2 -8 1 -12 -4 -27 212 39 414 127
22 9 36 13 30 7 -18 -17 -198 -89 -317 -127 -96 -30 -118 -41 -118 -56 0 -11
7 -19 18 -20 10 0 6 -4 -11 -11 -41 -15 -31 -42 18 -49 38 -5 38 -5 10 -10
-22 -3 -31 -10 -33 -28 -2 -13 2 -28 10 -32 32 -21 159 -7 422 45 149 30 316
62 371 70 55 9 141 25 190 36 50 10 100 21 112 22 17 2 20 6 13 18 -8 11 -12
12 -18 3 -7 -11 -36 -13 -46 -2 -2 2 2 10 10 17 8 7 14 10 14 6 0 -3 7 -1 15
6 8 7 15 9 15 6 0 -4 7 0 16 8 8 9 25 16 38 16 12 0 26 4 31 9 25 24 183 54
290 55 133 1 180 -12 183 -51 1 -14 7 -32 13 -39 6 -8 8 -14 4 -14 -13 0 72
-78 93 -84 12 -4 22 -11 22 -16 0 -4 11 -11 25 -14 26 -7 35 -25 13 -27 -7 0
1 -7 17 -15 l30 -15 -28 6 c-169 35 -468 62 -734 68 -75 2 -88 4 -70 13 12 7
56 18 97 25 41 7 67 14 57 17 -26 6 -413 -64 -797 -144 -118 -24 -258 -48
-310 -51 -68 -5 -86 -9 -65 -14 26 -6 23 -7 -17 -8 -55 -1 -63 -17 -18 -34 35
-13 38 -23 10 -30 -17 -4 -20 -11 -15 -38 3 -19 11 -37 18 -42 9 -6 9 -10 -2
-14 -11 -5 -11 -7 0 -15 10 -7 4 -8 -19 -5 -50 6 -23 -11 36 -23 64 -12 1155
-12 1147 0 -3 4 1 11 7 13 7 3 3 6 -9 6 -13 1 -23 5 -23 10 0 5 -21 11 -47 14
-27 3 -75 9 -108 13 l-60 8 45 7 c25 5 144 11 265 15 262 8 318 0 374 -52 23
-21 30 -34 21 -34 -9 0 -5 -6 10 -15 l25 -14 -35 -2 c-24 -1 -28 -3 -12 -6 12
-2 22 -8 22 -13 0 -5 8 -7 18 -4 14 5 14 4 -2 -6 -15 -10 -16 -14 -5 -21 11
-7 11 -9 1 -9 -7 0 0 -12 15 -26 l28 -25 -25 7 -25 7 25 -21 c29 -25 27 -25
-20 -12 l-35 10 24 -19 25 -19 -27 5 c-17 4 -27 1 -27 -7 0 -7 -7 -10 -14 -7
-9 4 -18 -1 -21 -11 -3 -9 -20 -28 -38 -42 -17 -14 -28 -19 -24 -12 5 7 3 12
-6 12 -7 0 -42 14 -77 31 -227 110 -520 157 -648 103 -51 -21 -82 -59 -82 -99
0 -27 8 -40 42 -69 26 -23 52 -36 70 -36 15 0 28 -4 28 -8 0 -5 93 -10 208
-11 114 -1 230 -7 257 -12 87 -17 169 -50 187 -74 20 -26 14 -55 -11 -55 -14
0 -14 -2 -1 -10 13 -8 13 -10 1 -10 -10 0 -8 -7 8 -21 21 -20 22 -23 7 -31 -9
-5 -13 -14 -10 -20 5 -8 -6 -9 -37 -5 -40 6 -42 6 -25 -8 11 -8 26 -15 34 -15
7 0 11 -4 8 -9 -3 -5 1 -11 9 -15 19 -7 19 -26 0 -26 -9 0 -12 -6 -9 -17 4
-11 3 -14 -3 -7 -4 7 -19 12 -33 12 -79 1 -435 107 -423 125 3 6 1 7 -5 4 -5
-4 -44 -1 -85 7 -122 24 -211 30 -249 17 -104 -34 -116 -166 -22 -228 32 -21
145 -42 229 -43 72 0 181 -22 231 -46 31 -15 60 -55 56 -76 -1 -5 2 -8 7 -8 5
0 8 -6 7 -12 -3 -25 -18 -38 -41 -38 -13 0 -27 -4 -30 -10 -3 -6 4 -10 16 -10
12 0 19 -3 16 -6 -4 -4 3 -15 15 -25 12 -11 16 -19 8 -19 -10 0 -10 -3 -1 -14
10 -12 5 -13 -31 -4 -24 5 -50 11 -58 13 -8 2 -15 4 -15 5 0 1 -13 3 -30 5
-28 4 -29 3 -11 -11 11 -8 25 -14 30 -14 12 -1 103 -83 126 -113 14 -18 13
-18 -25 -2 -22 9 -105 39 -185 67 -80 28 -163 60 -184 72 -96 52 -153 78 -184
83 -48 8 -107 -22 -128 -65 -45 -96 57 -200 289 -291 31 -13 57 -27 57 -32 0
-5 12 -15 28 -23 15 -8 23 -15 18 -16 -4 0 -1 -12 9 -26 21 -32 15 -36 -61
-53 -29 -7 -56 -17 -59 -22 -3 -5 2 -6 11 -2 13 5 15 3 9 -7 -5 -9 -4 -11 4
-6 6 4 27 2 46 -5 33 -12 33 -13 14 -27 -17 -12 -24 -11 -57 9 -20 13 -39 26
-42 29 -3 3 -31 22 -62 42 -32 19 -54 39 -50 43 4 5 2 5 -5 2 -6 -4 -29 3 -52
15 -39 21 -40 22 -21 38 26 23 25 25 -8 26 -26 1 -321 137 -332 154 -3 4 -18
15 -35 24 -26 15 -27 16 -5 10 25 -6 25 -6 -3 16 -34 27 -28 39 9 16 14 -10
28 -15 31 -13 3 3 -8 12 -25 21 -33 17 -65 75 -56 100 7 19 71 40 104 33 19
-3 16 -5 -11 -6 -128 -4 -82 -136 47 -136 88 0 129 66 64 103 -41 23 -38 32
10 26 26 -4 40 -2 40 5 0 16 -11 19 -120 36 l-95 14 85 -3 c53 -3 74 -1 55 4
-27 7 -28 8 -6 9 14 0 35 11 48 23 l23 22 118 -18 c64 -10 135 -20 157 -23 22
-2 47 -7 55 -10 8 -4 24 -7 35 -8 11 -1 36 -5 55 -8 27 -5 23 -2 -15 12 -60
22 -173 46 -470 101 -121 22 -253 49 -293 60 -40 11 -78 20 -85 20 -9 0 -12
-38 -11 -158 1 -86 3 -165 4 -175 4 -20 67 -52 343 -176 204 -91 333 -162 499
-274 125 -84 162 -116 118 -102 -21 7 -23 6 -13 -6 8 -9 9 -20 3 -29 -12 -19
-33 -19 -42 0 -4 8 -5 -3 -2 -25 3 -22 2 -35 -3 -30 -4 6 -18 11 -31 12 -25 3
-57 23 -168 108 -107 81 -109 84 -165 136 -27 25 -62 52 -77 60 -40 21 -55 36
-39 42 8 4 7 6 -3 6 -8 1 -26 10 -40 21 l-25 19 30 -4 c41 -5 117 -36 198 -80
38 -21 70 -35 73 -32 7 7 -317 166 -466 230 -150 64 -183 79 -202 95 -15 13
-18 12 -23 -9 -3 -13 -6 -123 -8 -243 l-2 -220 80 -53 c44 -30 145 -94 225
-143 80 -49 154 -96 165 -105 28 -23 2 -10 -95 50 -47 29 -130 79 -185 111
-55 32 -119 70 -142 86 -23 15 -46 28 -52 28 -14 0 -15 -120 -1 -121 6 -1 24
-2 41 -3 27 -1 28 0 12 11 -10 7 -27 19 -38 28 -18 14 -17 14 18 1 21 -9 35
-11 31 -5 -4 8 1 9 17 3 13 -4 31 -7 39 -7 19 0 202 -105 315 -180 149 -99
324 -254 311 -275 -3 -6 -1 -14 5 -18 8 -4 9 -3 5 4 -4 7 -2 12 3 12 18 0 13
-18 -11 -40 -21 -19 -21 -21 -5 -37 11 -11 17 -13 17 -5 0 7 -4 12 -10 12 -5
0 -10 5 -10 10 0 19 15 10 35 -20 13 -20 26 -29 38 -26 12 3 25 -8 43 -36 14
-22 28 -37 32 -34 3 4 0 12 -6 18 -7 7 -12 16 -12 21 0 6 12 -2 26 -17 24 -23
47 -31 81 -27 6 1 14 -3 18 -9 10 -16 33 -12 58 12 l22 23 3 -24 c12 -83 -48
-158 -230 -290 l-98 -70 31 61 c41 81 37 118 -30 255 -49 101 -59 113 -199
255 -81 82 -163 159 -182 172 -43 29 -91 42 -88 24 2 -7 -8 -14 -22 -16 -14
-2 -31 -9 -38 -15 -9 -7 -16 -7 -20 0 -4 5 -15 10 -26 10 -16 0 -15 -3 5 -18
13 -10 28 -19 32 -19 5 0 6 -4 3 -9 -7 -10 36 -75 84 -128 48 -52 56 -64 64
-90 6 -18 3 -23 -11 -23 -33 0 -205 81 -235 110 -18 19 -35 27 -45 23 -12 -5
-14 -3 -8 7 6 10 4 12 -8 7 -10 -3 -17 -3 -17 2 0 4 -10 13 -22 20 -23 11 -23
11 2 6 24 -5 24 -5 3 6 -32 17 -37 39 -10 39 21 1 22 1 2 12 -22 13 -44 38
-45 52 0 4 11 6 25 4 22 -5 25 -2 22 19 -2 14 -10 29 -18 34 -11 7 -10 9 6 9
18 1 18 2 -2 10 -13 5 -23 18 -23 29 0 14 5 19 15 15 8 -4 15 -1 15 5 0 6 -7
11 -15 11 -8 0 -15 7 -15 15 0 8 6 12 14 9 17 -6 31 12 16 21 -6 4 -8 10 -5
15 3 5 -4 11 -15 15 -17 5 -20 16 -21 68 -2 116 -10 30 -19 -209 l-8 -239 1
285 c1 157 6 288 11 291 6 5 11 503 7 708 -2 74 -12 18 -16 -90 -2 -63 -9
-193 -15 -289 -6 -96 -11 -206 -11 -245 1 -133 -24 -530 -31 -512 -5 10 -8 30
-8 43 0 16 -8 28 -22 34 -19 7 -20 9 -4 9 12 1 16 6 12 17 -3 9 -6 23 -6 31 0
12 -7 14 -32 10 -18 -3 -27 -3 -20 0 25 10 11 21 -27 19 -24 -1 -37 2 -34 8 4
6 -1 7 -12 2 -11 -4 -39 -10 -64 -13 -36 -5 -43 -4 -36 8 6 11 5 12 -5 2 -10
-9 -17 -9 -26 -2 -14 11 -8 39 8 39 6 0 5 -6 -2 -15 -16 -19 -3 -19 16 0 9 8
11 15 5 15 -18 0 -2 24 32 47 17 12 48 37 68 55 19 18 61 55 92 82 32 27 55
51 53 54 -3 2 -31 -18 -63 -45 -32 -27 -84 -69 -116 -92 -32 -24 -89 -68 -125
-100 -107 -91 -222 -183 -222 -177 0 5 236 206 363 309 131 105 167 138 166
150 0 9 -2 8 -6 -1 -2 -6 -31 -32 -63 -57 -54 -41 -59 -44 -88 -33 -24 9 -48
9 -102 0 -64 -11 -165 -52 -130 -52 13 -1 13 -2 0 -9 -20 -11 -90 -24 -90 -16
0 9 33 41 55 53 17 10 17 11 3 12 -12 0 -15 5 -11 17 4 11 3 14 -5 9 -7 -4
-12 -1 -12 8 0 9 4 16 8 16 4 0 8 9 8 20 0 11 -6 20 -12 20 -7 0 -14 10 -16
22 -2 14 -13 24 -33 30 -53 14 -123 12 -150 -6 -14 -9 -25 -13 -25 -10 0 4 -8
0 -17 -8 -29 -25 -150 -88 -156 -81 -9 8 44 53 62 53 8 0 11 3 8 6 -15 16 387
232 612 329 101 44 170 79 178 92 14 21 14 22 -10 10 -14 -6 -23 -16 -20 -21
4 -5 -1 -7 -10 -3 -10 4 -16 2 -14 -6 1 -7 -8 -12 -20 -11 -12 0 -19 -4 -16
-9 4 -6 0 -8 -9 -4 -9 3 -24 0 -34 -7 -11 -7 -37 -20 -59 -28 -41 -16 -148
-64 -176 -78 -161 -83 -341 -183 -519 -288 l-25 -14 25 20 c27 23 189 121 285
172 33 18 67 39 76 46 8 8 87 47 175 89 212 100 309 152 307 164 -1 5 5 15 15
23 15 12 16 11 3 -4 -7 -10 -9 -18 -3 -18 20 0 28 27 31 103 2 49 -1 77 -8 77
-6 0 -10 -3 -9 -7 1 -5 -1 -35 -5 -67 -6 -49 -13 -65 -39 -88 -36 -32 -120
-78 -143 -78 -21 0 -100 -37 -165 -78 -72 -46 -209 -112 -231 -112 -10 0 -20
-4 -23 -9 -3 -4 -26 -14 -51 -21 -38 -11 -43 -15 -29 -24 13 -10 1 -14 -60
-25 -74 -12 -92 -23 -60 -35 25 -10 8 -23 -34 -24 -22 -1 -50 -6 -63 -11 -24
-10 -24 -10 9 -22 17 -8 32 -17 32 -21 0 -10 -212 2 -224 13 -5 4 27 30 70 58
129 82 179 120 240 180 93 92 114 140 74 176 -38 34 -87 22 -243 -59 -144 -75
-171 -82 -197 -51 -14 16 158 102 280 140 47 15 94 31 105 36 141 64 694 251
746 253 15 1 25 4 22 9 -2 4 0 7 5 7 5 0 12 11 14 25 3 14 4 25 3 25 -1 0 -35
-15 -76 -34 -41 -19 -128 -50 -194 -71 -181 -55 -542 -174 -610 -200 -33 -13
-134 -58 -225 -100 -177 -82 -179 -83 -285 -90 -56 -4 -65 -3 -45 6 14 6 43
14 65 19 38 7 39 8 8 9 -18 1 -54 6 -82 12 -37 8 -48 14 -44 25 3 8 13 14 22
15 12 0 12 2 -4 9 -19 8 -19 9 3 9 13 1 20 5 17 11 -3 6 -1 10 4 10 18 0 25 3
44 20 18 17 68 35 257 91 174 52 304 124 398 221 40 42 56 89 37 114 -17 24
-97 21 -200 -7 -264 -72 -366 -91 -379 -71 -18 29 226 95 519 141 110 18 216
36 235 41 46 12 187 37 275 50 39 5 94 14 124 20 53 10 76 6 66 -10 -3 -5 0
-12 6 -16 9 -5 7 -11 -6 -21 -12 -8 -14 -13 -6 -13 11 0 11 -3 1 -15 -10 -12
-10 -15 1 -15 11 0 11 -2 0 -9 -12 -8 -12 -12 -2 -24 10 -13 9 -16 -7 -21 -10
-4 -25 -18 -32 -31 -7 -14 -18 -24 -24 -23 -6 1 -24 -5 -41 -13 -16 -9 -51
-22 -77 -29 -27 -7 -48 -17 -48 -21 0 -5 -3 -8 -7 -7 -5 0 -15 -1 -23 -5 -8
-3 -32 -11 -52 -17 -21 -6 -38 -18 -38 -26 0 -8 -7 -14 -15 -14 -8 0 -15 -4
-15 -9 0 -5 -9 -7 -20 -4 -11 3 -20 1 -20 -3 0 -9 -9 -14 -125 -61 -60 -24
-82 -27 -148 -25 -52 2 -76 -1 -72 -8 3 -5 16 -10 28 -10 40 0 -3 -18 -75 -31
-71 -13 -83 -23 -45 -39 17 -7 10 -9 -33 -10 -30 0 -66 -3 -79 -7 -23 -6 -23
-6 10 -24 33 -17 33 -18 9 -20 -14 -1 -29 -3 -35 -4 -5 -2 -16 -3 -23 -4 -7 0
-11 -5 -8 -10 4 -5 -7 -12 -23 -16 -18 -4 -28 -11 -25 -19 3 -8 -17 -16 -58
-25 -86 -18 -89 -19 -39 -20 35 -1 77 14 190 65 80 36 258 104 396 150 413
139 547 188 592 216 38 24 43 32 44 65 2 109 10 200 21 220 6 13 9 26 6 29 -4
3 -46 -4 -95 -15 -48 -12 -173 -35 -278 -51 -532 -85 -751 -135 -1060 -244
-38 -13 -95 -27 -125 -30 -30 -3 -46 -2 -35 2 25 9 32 42 9 42 -13 0 -11 4 7
20 23 18 23 19 4 20 -15 1 -16 3 -5 7 17 7 44 33 39 37 -2 2 -17 8 -34 14 -17
6 -22 11 -12 11 9 1 17 6 17 11 0 6 8 10 18 11 16 0 16 1 -1 8 -13 5 0 12 50
28 103 33 212 53 373 68 80 7 177 21 215 30 63 16 74 22 113 66 50 59 55 94
16 128 -18 16 -40 22 -77 24 -29 1 -56 7 -60 12 -6 6 -10 5 -14 -3 -3 -7 -21
-21 -41 -31 -36 -18 -230 -74 -302 -86 -19 -4 -57 -10 -85 -15 -27 -5 -59 -12
-69 -16 -15 -6 -18 -4 -13 9 5 14 3 15 -21 4 -15 -6 -29 -14 -32 -18 -3 -3
-27 -14 -55 -24 -27 -10 -60 -25 -72 -33 -12 -7 -27 -11 -32 -8 -5 4 -13 1
-18 -6 -4 -7 -15 -14 -23 -14 -8 -1 -24 -5 -34 -10 -14 -5 -17 -4 -12 4 4 7 2
12 -5 12 -8 0 -8 4 1 15 11 13 10 15 -1 10 -20 -7 -41 42 -28 67 6 10 7 32 4
48 -4 16 -3 35 1 42 5 7 8 24 8 38 0 40 67 65 382 139 22 6 101 15 175 21 220
18 310 30 384 52 170 50 230 111 175 180 l-19 25 52 -4 c29 -3 59 -7 67 -11
15 -6 28 -8 68 -11 13 0 21 -5 18 -10 -3 -5 16 -7 42 -5 44 3 44 2 12 -6 -33
-8 -32 -8 20 -9 64 -1 128 -10 135 -20 2 -4 -26 -4 -63 1 -58 7 -89 7 -197 -2
-13 -1 -5 -7 20 -15 22 -8 33 -14 25 -15 -15 -1 -60 -34 -60 -44 0 -10 92 -53
149 -70 68 -20 104 -20 141 -1 19 10 36 12 51 6 l23 -8 -23 -13 c-47 -25 -260
-45 -486 -45 -121 0 -237 3 -258 7 -20 4 -35 3 -32 -2 9 -14 -65 -33 -127 -31
-33 1 -57 -3 -54 -7 3 -5 -6 -7 -19 -4 -36 6 -31 -6 8 -18 32 -10 32 -10 2 -6
-16 3 -39 7 -50 11 -11 3 -7 -1 9 -10 20 -12 42 -16 69 -12 23 3 36 2 31 -3
-5 -5 -35 -11 -66 -12 -31 -2 -53 -7 -50 -12 3 -5 -9 -6 -27 -3 -18 4 -30 3
-27 -1 2 -4 -14 -6 -37 -5 -24 1 -31 -1 -17 -4 19 -4 6 -11 -59 -29 -91 -27
-248 -103 -276 -134 -18 -20 -18 -20 11 -7 16 7 58 28 94 46 56 29 139 62 190
77 203 56 406 68 595 37 28 -4 91 -7 142 -6 76 2 91 -1 86 -13 -3 -8 -9 -14
-15 -14 -5 0 -6 -5 -2 -11 3 -6 1 -15 -5 -19 -8 -4 -1 -12 19 -20 24 -10 37
-10 50 -3 14 10 16 8 12 -13 -3 -18 2 -26 20 -35 28 -12 33 -39 7 -39 -10 0
-24 -7 -33 -15 -8 -8 -18 -15 -22 -15 -4 0 -15 -6 -23 -14 -25 -21 -130 -48
-189 -49 -60 0 -61 -3 -6 -17 39 -9 39 -10 -14 -6 -29 2 -55 -1 -58 -5 -3 -5
-19 -9 -37 -8 -18 0 -52 -4 -76 -8 -37 -7 -42 -10 -29 -21 13 -10 59 -4 254
32 132 25 295 55 364 66 149 25 257 48 287 60 21 9 22 15 20 105 -1 68 1 96
11 100 6 2 12 12 12 21 0 15 -12 16 -102 11 -57 -4 -267 -3 -468 2 l-365 8
440 2 c242 1 449 6 459 10 17 6 20 19 22 87 2 43 5 88 6 99 3 18 -4 21 -57 26
l-60 5 53 5 c53 4 72 21 30 27 -38 6 -41 18 -3 14 40 -5 44 6 14 34 l-20 18
22 8 c16 6 20 14 16 33 -2 14 0 28 4 31 14 8 -9 44 -34 54 -21 8 -20 9 6 9 40
1 37 38 -5 56 l-33 14 28 1 c22 0 27 5 27 24 0 14 -10 32 -22 41 l-23 17 23
-7 c25 -7 28 5 10 38 -15 27 -17 78 -3 73 6 -2 36 10 68 26 l57 28 0 122 0
122 21 -20 c13 -14 23 -41 27 -75z m7642 12 c0 -6 5 -11 10 -11 6 0 10 -9 10
-21 0 -12 8 -23 20 -26 14 -4 20 -14 20 -34 0 -15 5 -31 10 -34 6 -3 10 -26
10 -51 l0 -45 -43 30 c-69 47 -172 152 -196 199 -22 44 -13 58 13 20 l15 -22
26 28 c14 15 29 25 34 21 5 -3 12 -1 16 5 7 11 55 -41 55 -59z m3305 39 c8
-13 -5 -13 -25 0 -13 8 -13 10 2 10 9 0 20 -4 23 -10z m-5894 -93 c66 -80 166
-167 286 -247 129 -87 149 -104 68 -60 -61 34 -142 90 -205 143 -70 59 -200
191 -200 204 0 20 4 17 51 -40z m-4511 -27 c-41 -39 -88 -77 -105 -86 -28 -15
-29 -15 -14 1 21 22 182 154 189 154 3 0 -29 -31 -70 -69z m3238 30 c35 -56
72 -90 126 -117 31 -15 56 -30 56 -34 0 -3 -19 -3 -42 2 -60 11 -68 11 -68 -4
0 -7 17 -19 37 -27 32 -11 35 -14 18 -20 -18 -6 -18 -7 3 -12 12 -4 22 -11 22
-17 0 -15 -47 -14 -52 1 -3 8 -12 8 -33 1 l-30 -10 42 -12 c23 -6 61 -14 85
-17 64 -9 63 -13 -7 -29 -27 -7 -28 -8 -10 -16 16 -8 15 -8 -5 -3 -14 3 -60
10 -103 14 -43 5 -81 11 -84 14 -3 2 10 9 28 14 l34 9 -48 7 c-27 4 -46 10
-43 13 3 4 1 12 -5 20 -9 10 -8 13 4 13 18 0 17 21 -3 46 -14 16 -11 17 60 12
76 -5 73 -4 -38 18 -18 4 -21 8 -14 22 5 9 7 23 5 30 -3 6 1 12 8 12 6 0 2 9
-11 20 -13 11 -18 20 -11 20 14 0 11 31 -4 42 -6 4 -2 8 8 8 10 0 16 4 13 9
-3 4 6 6 20 3 14 -2 33 -17 42 -32z m-5263 -21 c18 -7 18 -8 -5 -8 -14 0 -38
6 -55 14 l-30 15 35 -6 c19 -4 44 -10 55 -15z m1889 0 c-7 -12 -185 -129 -224
-148 -31 -14 -28 -12 118 85 122 81 115 78 106 63z m3136 -44 c0 -5 -5 -3 -10
5 -5 8 -10 20 -10 25 0 6 5 3 10 -5 5 -8 10 -19 10 -25z m-5561 -7 c34 -18 61
-35 61 -38 0 -3 -7 -13 -14 -23 -13 -16 -18 -16 -97 10 -46 14 -77 29 -70 31
9 3 4 9 -15 18 l-29 12 27 1 c15 1 30 6 33 11 11 17 42 11 104 -22z m7441 17
c11 -13 10 -14 -4 -9 -9 3 -16 10 -16 15 0 13 6 11 20 -6z m6116 -25 c9 0 12
-4 9 -10 -3 -5 3 -10 15 -10 12 0 18 -4 15 -10 -3 -6 5 -10 18 -10 14 0 28 -7
31 -16 3 -8 2 -13 -2 -10 -14 9 -145 -26 -197 -52 -27 -13 -69 -38 -92 -54
l-43 -29 -39 21 c-22 11 -49 20 -60 20 -23 0 -36 16 -21 25 21 13 -2 23 -67
30 -38 3 -88 2 -112 -4 -29 -6 -40 -6 -33 1 16 16 122 48 197 59 70 10 297 47
325 53 8 2 21 2 28 0 8 -2 20 -4 28 -4z m-13078 -21 c18 -6 30 -15 27 -19 -3
-5 9 -11 26 -15 22 -5 28 -10 18 -15 -9 -6 -4 -11 17 -16 43 -11 105 -40 98
-46 -3 -4 8 -9 25 -13 17 -4 31 -13 31 -21 0 -11 -4 -12 -19 -4 -11 5 -30 10
-43 9 l-23 0 25 -11 c14 -6 46 -20 72 -31 27 -11 46 -23 43 -25 -2 -2 -23 5
-47 16 -48 24 -66 22 -19 -3 39 -20 39 -30 2 -30 -16 0 -27 3 -25 6 1 3 -3 6
-11 6 -8 0 -12 -5 -8 -10 3 -5 -3 -7 -13 -3 -55 16 -118 26 -126 18 -11 -11
19 -52 39 -52 14 0 14 -3 -2 -20 -18 -20 -17 -20 14 -20 19 0 30 -4 26 -10 -3
-5 0 -10 7 -10 7 -1 0 -7 -17 -15 -35 -16 -15 -19 33 -6 28 8 36 7 53 -10 13
-13 27 -17 43 -13 18 4 22 1 21 -13 -2 -30 -13 -40 -51 -47 -47 -9 -276 -86
-290 -97 -7 -6 -22 -5 -38 1 -15 5 -39 7 -54 4 -22 -5 -25 -4 -14 7 18 19 15
34 -5 18 -11 -10 -14 -10 -9 -1 4 7 2 12 -4 12 -6 0 -9 4 -6 9 4 5 -9 6 -29 1
-20 -5 -33 -4 -29 1 3 5 -7 9 -21 9 -17 0 -24 4 -19 12 5 8 2 9 -11 4 -18 -6
-18 -6 1 15 l19 22 -25 -8 c-25 -8 -25 -8 -6 14 13 14 15 21 6 21 -10 0 -10 3
0 15 10 12 10 15 -1 16 -10 0 -11 2 -2 6 10 3 9 8 -2 20 -8 8 -13 18 -10 23
12 19 -27 31 -97 28 -72 -3 -73 -3 -79 -33 -8 -36 -13 -9 -9 45 7 90 17 80
-115 130 -66 25 -126 49 -133 54 -22 14 -1 27 31 20 47 -10 107 -12 107 -4 0
4 -14 13 -31 20 -18 8 -27 16 -21 22 12 12 81 -5 155 -39 57 -27 58 -28 52
-60 -6 -34 2 -42 22 -22 8 8 27 6 70 -6 73 -21 88 -37 67 -76 -18 -35 -12 -36
29 -5 18 13 57 31 87 41 30 10 58 19 62 21 12 7 -4 44 -21 45 -14 0 -14 1 -1
7 9 4 15 14 15 22 -2 40 27 69 90 91 11 4 20 7 21 8 1 1 15 -4 32 -10z m2002
-35 c-8 -8 -23 -20 -34 -25 -15 -7 -13 -3 7 15 31 29 47 35 27 10z m205 -2
c-6 -5 -37 -23 -70 -41 -35 -19 -50 -24 -35 -12 33 27 132 76 105 53z m5740
-2 c-27 -12 -43 -12 -25 0 8 5 22 9 30 9 10 0 8 -3 -5 -9z m-2255 -16 c14 -8
17 -13 7 -10 -10 3 -25 6 -33 6 -8 0 -14 5 -14 10 0 14 10 12 40 -6z m2114
-12 c3 -5 -1 -9 -9 -9 -8 0 -15 4 -15 9 0 4 4 8 9 8 6 0 12 -4 15 -8z m-5514
-15 c0 -7 -13 -21 -30 -30 -68 -40 -90 -67 -90 -108 0 -33 4 -41 30 -54 16 -8
32 -15 35 -15 3 0 13 -6 21 -15 9 -8 11 -15 5 -15 -5 0 -12 4 -15 9 -5 8 -53
2 -135 -15 -25 -5 -32 -4 -27 4 4 7 3 12 -2 12 -5 0 -7 11 -5 24 3 16 -2 31
-16 45 -19 19 -22 19 -57 5 -42 -18 -128 -29 -104 -14 8 5 23 7 34 4 12 -4 16
-2 12 5 -5 7 -1 9 8 5 9 -3 16 -2 16 4 0 5 15 15 33 22 60 24 212 98 242 118
36 24 45 26 45 9z m5477 7 c-3 -3 -12 -4 -19 -1 -8 3 -5 6 6 6 11 1 17 -2 13
-5z m-8707 -30 c0 4 6 2 13 -3 6 -6 40 -33 74 -61 63 -51 106 -111 85 -118 -8
-2 -8 -11 0 -28 9 -19 9 -27 0 -32 -7 -5 -8 -13 -2 -22 16 -25 11 -31 -16 -24
-19 5 -25 4 -20 -5 9 -14 4 -14 -31 1 -35 15 -230 167 -261 203 -24 27 -23 47
0 28 7 -6 23 -14 35 -17 18 -6 20 -4 16 14 -3 11 -18 31 -34 44 -34 29 -28 39
10 20 16 -8 41 -16 57 -18 16 -2 38 -7 49 -11 19 -8 18 -6 -2 17 -30 32 -29
42 2 22 14 -9 25 -13 25 -10z m2605 6 c-3 -5 -12 -10 -18 -10 -7 0 -6 4 3 10
19 12 23 12 15 0z m400 -20 c-3 -5 -12 -10 -18 -10 -7 0 -6 4 3 10 19 12 23
12 15 0z m-1781 -39 c4 -5 -3 -7 -14 -4 -23 6 -26 13 -6 13 8 0 17 -4 20 -9z
m524 -28 c14 -16 45 -40 67 -55 45 -31 41 -35 -11 -13 -19 8 -35 14 -37 13 -1
-1 -19 5 -39 12 -25 9 -34 17 -25 22 9 6 9 8 0 8 -7 0 -13 9 -13 20 0 28 26
25 58 -7z m6972 15 c0 -11 -22 -10 -39 1 -10 7 -7 9 12 8 15 -1 27 -5 27 -9z
m-41 -21 c-2 -1 -13 -9 -24 -17 -19 -14 -19 -14 -6 3 7 9 18 17 24 17 6 0 8
-1 6 -3z m-2222 -13 c-3 -3 -12 -4 -19 -1 -8 3 -5 6 6 6 11 1 17 -2 13 -5z
m20 -20 c-3 -3 -12 -4 -19 -1 -8 3 -5 6 6 6 11 1 17 -2 13 -5z m2068 -13 c-3
-5 3 -12 12 -14 10 -2 5 -3 -10 -1 -15 2 -36 -1 -46 -8 -13 -8 -23 -8 -37 0
-17 10 -16 11 11 12 17 0 37 5 45 10 19 12 33 13 25 1z m-8801 -31 c4 0 4 6 0
13 -5 6 8 -2 27 -19 18 -17 53 -48 76 -68 23 -21 63 -68 89 -106 41 -61 46
-73 40 -105 l-7 -36 -28 21 c-26 17 -30 18 -35 4 -3 -9 -4 -19 -1 -24 11 -18
-26 -17 -49 1 -30 23 -33 19 -10 -16 15 -23 15 -24 -8 -20 -12 3 -32 15 -43
28 -94 113 -183 225 -188 240 -9 24 14 22 47 -4 28 -22 34 -15 11 15 -12 16
-12 20 1 33 13 13 17 13 39 -1 29 -19 44 -21 27 -4 -20 20 -13 32 8 13 30 -28
24 -10 -12 32 -18 21 -23 30 -12 21 11 -10 24 -18 28 -18z m3519 -27 c-13 -2
-33 -2 -45 0 -13 2 -3 4 22 4 25 0 35 -2 23 -4z m3994 1 c-3 -3 -12 -4 -19 -1
-8 3 -5 6 6 6 11 1 17 -2 13 -5z m40 -10 c-3 -3 -12 -4 -19 -1 -8 3 -5 6 6 6
11 1 17 -2 13 -5z m306 -64 c5 0 5 6 2 13 -4 6 0 4 8 -5 8 -10 18 -18 22 -18
4 0 21 -6 38 -14 18 -7 47 -19 65 -26 17 -7 32 -16 32 -19 0 -4 15 -6 33 -4
31 3 29 1 -23 -20 -62 -25 -187 -11 -175 20 2 8 -4 13 -16 13 -22 0 -99 48
-99 62 0 4 12 5 26 2 18 -5 25 -3 20 4 -4 8 3 8 26 1 18 -5 37 -9 41 -9z
m-4153 -21 c11 -8 9 -9 -10 -3 -14 3 -22 3 -17 -2 4 -4 -27 -18 -69 -31 -83
-27 -114 -50 -114 -87 0 -28 42 -82 70 -91 18 -6 18 -7 2 -23 -15 -15 -30 -16
-107 -10 -49 3 -112 7 -140 8 -37 1 -45 3 -30 10 40 15 46 33 25 68 -17 28
-25 32 -62 33 l-43 0 47 19 c26 11 78 24 115 30 104 17 267 62 278 77 12 16
34 17 55 2z m-1600 -9 c20 -6 21 -8 5 -8 -11 0 -31 4 -45 8 -20 6 -21 8 -5 8
11 0 31 -4 45 -8z m12317 -6 c-3 -3 -12 -4 -19 -1 -8 3 -5 6 6 6 11 1 17 -2
13 -5z m140 0 c-3 -3 -12 -4 -19 -1 -8 3 -5 6 6 6 11 1 17 -2 13 -5z m-12304
-31 c42 -10 77 -21 77 -24 0 -8 -192 39 -200 48 -3 3 6 3 20 0 14 -4 60 -15
103 -24z m12064 11 c-3 -3 -12 -4 -19 -1 -8 3 -5 6 6 6 11 1 17 -2 13 -5z
m308 -3 c-6 -5 -21 -11 -35 -15 -21 -5 -20 -3 5 9 35 17 42 18 30 6z m-360
-11 c-51 -22 -401 -161 -410 -163 -5 -1 -12 -5 -15 -8 -3 -3 -38 -22 -79 -42
-87 -43 -191 -108 -191 -119 0 -4 -5 -8 -11 -8 -5 0 -39 -20 -75 -45 -35 -25
-66 -45 -69 -45 -3 0 -18 -9 -33 -20 -32 -23 -106 -55 -98 -42 3 5 40 33 83
63 43 29 80 57 81 61 2 4 8 8 13 8 6 0 20 9 32 21 29 27 120 89 177 120 25 13
47 26 50 29 15 15 188 92 267 119 132 45 342 99 278 71z m-6445 -10 c0 -5 -2
-10 -4 -10 -3 0 -8 5 -11 10 -3 6 -1 10 4 10 6 0 11 -4 11 -10z m6854 -1 c-2
-4 3 -10 12 -13 10 -4 13 -2 8 7 -4 6 8 -1 27 -18 19 -16 38 -33 43 -37 4 -3
-24 -6 -63 -6 -39 0 -73 4 -77 9 -3 5 -13 9 -22 9 -26 0 -25 39 1 49 25 9 77
9 71 0z m-12259 -29 c13 -5 14 -9 5 -9 -8 0 -24 4 -35 9 -13 5 -14 9 -5 9 8 0
24 -4 35 -9z m-42 -57 c-7 -2 -19 -2 -25 0 -7 3 -2 5 12 5 14 0 19 -2 13 -5z
m74 -9 c-3 -3 -12 -4 -19 -1 -8 3 -5 6 6 6 11 1 17 -2 13 -5z m-112 -34 c13
-11 13 -15 3 -21 -10 -7 -10 -9 0 -9 6 0 12 -7 12 -17 0 -9 -3 -14 -6 -10 -3
3 -17 2 -30 -3 -14 -6 -26 -6 -29 1 -4 5 -12 9 -18 8 -24 -3 -38 1 -33 9 2 4
-4 13 -15 20 -21 13 -26 3 -7 -16 19 -19 -3 -14 -24 5 -17 15 -18 15 -13 1 5
-13 2 -15 -14 -11 -12 3 -21 9 -21 13 0 4 -11 6 -24 5 -36 -4 -22 22 18 35 43
13 181 7 201 -10z m3809 4 c9 -3 16 -12 16 -19 0 -7 6 -15 13 -18 6 -2 -5 -8
-26 -12 -25 -5 -42 -4 -50 4 -8 8 -8 11 2 11 7 0 9 5 5 11 -3 6 0 15 7 20 17
11 14 10 33 3z m41 -74 c3 -5 -2 -10 -12 -11 -12 0 -8 -4 10 -11 18 -6 26 -15
23 -24 -3 -8 0 -14 7 -14 20 0 48 -38 34 -44 -7 -4 10 -4 38 -2 52 4 78 -4
108 -35 17 -18 17 -19 0 -20 -10 -1 -2 -5 17 -8 19 -4 40 -3 47 2 7 5 18 7 25
4 9 -3 6 -7 -7 -13 -11 -4 -26 -14 -33 -21 -7 -7 -25 -13 -40 -14 -15 0 -40
-3 -57 -6 -16 -2 -101 3 -189 12 -173 18 -243 15 -302 -16 -21 -10 -40 -19
-43 -19 -10 0 64 71 101 96 21 15 36 29 33 32 -2 3 -11 -1 -19 -7 -10 -8 -16
-9 -21 -1 -3 5 -1 10 4 10 6 0 11 9 11 20 0 13 5 18 15 14 15 -6 135 33 145
46 3 4 12 10 20 13 10 3 6 6 -10 7 -23 1 -23 2 -5 10 28 12 93 12 100 0z
m4809 -22 c-15 -18 -35 -51 -44 -74 -16 -36 -109 -138 -118 -129 -9 9 86 154
125 193 51 49 77 56 37 10z m-9499 -116 c-3 -3 -11 0 -18 7 -9 10 -8 11 6 5
10 -3 15 -9 12 -12z m13134 3 c-3 -2 -70 -24 -149 -49 -80 -24 -188 -59 -240
-79 -52 -19 -138 -50 -190 -69 -52 -19 -120 -43 -150 -53 -30 -10 -92 -33
-137 -51 -86 -35 -163 -57 -163 -45 0 7 154 97 225 130 75 35 109 47 195 71
25 7 63 19 85 27 105 39 292 90 410 112 55 10 121 14 114 6z m-13001 -12 c-10
-2 -28 -2 -40 0 -13 2 -5 4 17 4 22 1 32 -1 23 -4z m-95 -10 c-7 -2 -19 -2
-25 0 -7 3 -2 5 12 5 14 0 19 -2 13 -5z m5014 1 c-3 -3 -12 -4 -19 -1 -8 3 -5
6 6 6 11 1 17 -2 13 -5z m5273 -14 c30 -5 83 -11 118 -15 123 -12 317 -43 537
-86 55 -11 165 -31 245 -45 201 -35 605 -122 921 -199 146 -36 275 -65 288
-65 13 0 75 22 139 49 105 44 262 96 262 86 0 -5 -126 -65 -137 -65 -4 0 -44
-14 -88 -31 -44 -17 -93 -35 -110 -38 -28 -7 -26 -8 30 -24 112 -31 2 -12
-220 37 -60 14 -193 41 -295 61 -102 20 -297 58 -435 85 -268 52 -574 106
-800 140 -379 56 -524 84 -536 102 -3 5 -15 10 -27 11 -11 0 -18 5 -15 10 3 5
20 6 37 2 17 -3 56 -10 86 -15z m-910 -50 c-12 -8 -12 -10 -1 -10 11 0 11 -4
-2 -18 -22 -24 -21 -30 1 -28 13 1 16 -6 15 -27 -1 -15 2 -25 7 -22 6 4 10 -8
10 -26 0 -26 2 -29 14 -20 11 9 15 9 18 -1 3 -7 -5 -20 -16 -30 -28 -23 -8
-23 28 1 16 11 35 17 42 14 9 -3 -18 -36 -75 -91 -91 -90 -122 -143 -152 -262
-9 -36 -13 -41 -20 -27 -6 9 -7 23 -3 30 4 6 4 9 -1 5 -22 -20 -81 170 -71
225 6 30 125 281 126 265 0 -4 15 1 33 12 33 21 78 30 47 10z m859 -47 c-13
-15 -29 -33 -36 -40 -27 -30 -54 -84 -47 -94 4 -7 3 -9 -3 -6 -13 8 -46 -40
-38 -54 4 -5 -3 -26 -15 -46 -15 -25 -18 -39 -11 -46 6 -6 11 -19 11 -28 0
-10 4 -21 10 -24 5 -3 7 0 4 8 -5 14 12 34 22 25 2 -3 -9 -34 -25 -69 -17 -35
-30 -59 -31 -54 -1 12 -29 -36 -29 -50 -1 -5 4 -3 9 5 13 20 12 10 -1 -29 -6
-17 -15 -31 -19 -31 -4 0 -6 -10 -3 -22 4 -19 3 -21 -7 -8 -10 13 -11 13 -6
-2 3 -10 -3 -57 -14 -105 -29 -133 -44 -328 -31 -399 11 -57 52 -134 71 -134
6 0 10 -5 10 -11 0 -6 -12 -2 -27 9 -16 11 -51 31 -79 45 -77 39 -140 114
-166 200 -28 94 -33 356 -6 397 9 14 19 42 22 63 5 24 11 35 18 31 7 -5 9 -2
5 9 -3 9 0 29 8 44 8 15 15 36 15 45 0 9 3 18 8 20 16 7 68 126 62 144 -5 12
-9 14 -14 6 -4 -7 -5 -16 -2 -20 3 -5 -7 -7 -22 -4 -39 5 -112 -74 -187 -203
-32 -55 -84 -142 -116 -193 -39 -63 -62 -112 -69 -150 -18 -88 -29 -106 -29
-50 -1 29 -10 64 -26 95 l-25 48 20 72 c18 66 44 137 73 206 7 15 17 27 22 27
6 0 19 15 30 32 34 58 156 186 172 181 7 -3 21 5 32 16 12 12 26 21 31 21 6 0
-5 -16 -24 -36 -21 -22 -40 -33 -47 -28 -8 4 -9 3 -5 -5 4 -6 -4 -32 -18 -57
-30 -54 -32 -61 -11 -44 8 7 15 9 15 4 1 -5 13 16 27 46 15 30 28 49 31 42 2
-7 8 -12 14 -12 6 0 8 7 4 15 -3 8 -1 15 5 15 6 0 9 -8 7 -17 -2 -10 -11 -17
-21 -17 -20 2 -22 -7 -4 -25 6 -8 7 -11 1 -8 -6 3 -18 -3 -28 -14 -19 -23 -12
-46 10 -28 7 6 11 15 8 20 -3 5 -2 8 3 7 9 -3 63 49 57 54 -3 4 84 64 125 85
12 7 27 10 32 7 5 -3 9 -1 9 5 0 10 91 99 116 114 22 12 17 5 -26 -43 -22 -24
-40 -49 -40 -54 0 -5 -10 -21 -22 -34 -20 -21 -20 -24 -5 -19 10 4 25 7 32 7
8 0 23 10 35 22 22 24 41 18 20 -7 -7 -8 -10 -15 -7 -15 3 0 20 21 38 48 37
55 99 122 113 122 5 0 -1 -12 -15 -27z m-9377 -42 c-12 -2 -12 -5 -2 -11 34
-21 -143 -64 -204 -50 -23 6 -13 8 42 9 87 1 138 21 144 56 3 13 2 28 -1 32
-3 4 3 -1 15 -12 17 -16 18 -21 6 -24z m9542 18 c-3 -5 2 -6 11 -2 13 5 14 7
3 14 -9 6 -7 9 9 9 31 0 34 -10 18 -65 -8 -26 -12 -59 -8 -73 4 -18 3 -23 -7
-17 -8 5 -11 2 -8 -11 2 -11 10 -18 16 -16 13 2 14 -4 16 -55 1 -17 -2 -29 -7
-26 -4 2 -6 16 -5 30 2 14 -2 28 -8 30 -16 5 -25 -49 -11 -66 9 -11 9 -13 1
-8 -7 4 -14 1 -17 -6 -9 -24 0 -162 12 -185 7 -13 10 -30 7 -38 -3 -8 -1 -14
5 -14 6 0 9 -8 8 -17 -3 -26 12 -92 22 -99 5 -3 9 -20 9 -39 0 -19 4 -45 10
-59 9 -25 23 -108 21 -136 -1 -42 23 -159 32 -153 7 4 8 0 3 -12 -8 -22 24
-176 36 -169 8 5 12 -11 9 -30 -4 -20 10 -57 19 -51 5 3 7 0 4 -8 -6 -16 67
-94 126 -133 46 -32 40 -30 -64 11 -187 76 -265 139 -324 263 -43 90 -54 182
-28 237 16 33 16 41 2 104 -19 82 -24 505 -7 590 6 29 8 57 5 62 -9 15 6 50
18 43 8 -5 9 3 5 25 -4 18 -3 30 2 27 4 -3 15 13 24 36 14 35 19 39 32 28 8
-7 12 -16 9 -21z m149 -71 c-13 -56 -18 -86 -22 -125 0 -7 -9 -20 -20 -30 -27
-26 -41 -79 -50 -190 l-7 -98 -5 97 c-2 53 -1 94 3 92 9 -6 22 122 14 142 -8
21 4 70 14 54 5 -7 13 8 21 39 8 34 17 50 25 47 7 -3 16 4 19 15 4 10 10 19
14 19 5 0 2 -28 -6 -62z m206 46 c41 -4 68 -20 55 -33 -3 -3 -9 1 -14 9 -9 14
-9 14 -23 -55 -3 -14 -5 -11 -7 10 l-2 30 -9 -35 c-21 -86 -9 -385 18 -450 11
-28 14 -45 23 -138 5 -51 16 -107 25 -124 8 -17 15 -37 15 -45 0 -15 50 -195
81 -293 32 -99 99 -248 115 -254 8 -3 14 -12 14 -20 0 -8 10 -22 22 -30 12 -9
19 -16 14 -16 -4 0 19 -21 53 -46 34 -25 61 -47 61 -49 0 -6 -114 41 -194 81
-163 80 -313 278 -381 504 -7 23 -6 24 9 11 16 -14 17 -10 11 50 -3 35 -16
107 -27 159 -15 68 -22 132 -22 226 -1 73 -4 130 -8 128 -8 -5 -2 205 8 311 7
79 16 88 73 80 24 -4 65 -9 90 -11z m266 -39 c44 -8 145 -26 225 -39 80 -14
206 -36 280 -50 74 -14 223 -41 330 -61 107 -19 222 -42 255 -49 33 -8 114
-26 180 -41 282 -63 495 -119 483 -127 -10 -6 -10 -8 0 -8 6 0 12 -5 12 -11 0
-6 -7 -8 -16 -5 -13 5 -15 1 -9 -21 6 -24 5 -25 -11 -13 -14 13 -18 12 -33 -6
-16 -20 -17 -20 -56 18 -22 22 -41 35 -43 30 -5 -16 47 -113 87 -162 20 -25
50 -63 66 -85 16 -22 32 -42 36 -45 48 -37 147 -135 142 -143 -3 -6 -2 -7 4
-4 6 4 30 -11 53 -33 24 -22 47 -40 51 -40 4 0 9 -3 11 -7 7 -17 78 -63 134
-89 83 -37 134 -64 174 -92 l35 -24 -80 7 c-94 7 -162 35 -220 89 -32 30 -36
39 -25 47 13 9 13 10 0 8 -25 -3 -71 20 -119 59 -25 20 -49 37 -54 37 -4 0
-28 22 -53 49 -24 27 -44 44 -44 37 0 -6 -14 3 -32 19 -17 17 -37 29 -44 26
-7 -3 -22 4 -35 15 -12 10 -25 19 -29 19 -12 0 -136 168 -161 217 -22 43 -59
84 -59 67 0 -6 6 -17 13 -24 6 -8 -7 2 -30 24 -26 25 -43 50 -48 72 -3 19 -10
32 -16 29 -5 -4 -7 -11 -3 -16 10 -17 -6 -61 -21 -56 -8 4 -15 -4 -19 -19 -8
-30 -22 -31 -32 -2 l-7 23 -9 -25 -10 -25 -11 23 c-5 12 -14 22 -18 22 -8 0
18 -51 61 -122 27 -44 109 -138 200 -226 83 -82 220 -179 432 -307 54 -32 96
-60 95 -62 -9 -8 -265 30 -311 47 -61 23 -196 114 -196 133 0 6 -35 35 -78 62
-80 52 -135 103 -212 196 -55 65 -143 185 -159 217 -7 12 -16 20 -21 17 -6 -3
-7 0 -5 7 3 8 -1 22 -10 33 -15 20 -15 20 -9 0 5 -18 4 -18 -6 -2 -6 9 -9 21
-6 26 3 5 -1 14 -9 21 -8 7 -15 9 -15 5 0 -18 -34 23 -50 60 l-18 40 1 -33 c0
-18 -6 -38 -13 -45 -10 -9 -11 -9 -5 2 5 9 4 12 -3 7 -7 -4 -12 -15 -12 -24 0
-15 -2 -15 -10 -2 -22 34 -8 -8 15 -45 13 -22 25 -49 25 -60 0 -17 2 -18 11
-5 9 13 10 13 7 0 -2 -8 7 -29 20 -47 32 -45 27 -50 -9 -9 -17 20 -34 48 -38
63 -4 15 -18 33 -30 39 -33 17 -52 37 -26 28 16 -6 18 -5 7 7 -10 11 -15 10
-29 -4 -16 -15 -15 -18 2 -37 10 -11 15 -20 11 -20 -11 0 68 -143 121 -220 54
-76 135 -172 182 -214 19 -17 67 -61 105 -98 39 -38 77 -68 84 -68 6 0 12 -4
12 -8 0 -15 89 -74 101 -67 11 8 40 -25 33 -37 -3 -5 1 -8 9 -8 7 0 28 -15 45
-32 37 -39 51 -51 96 -82 41 -27 71 -56 59 -56 -19 0 -220 41 -253 51 -45 15
-137 70 -192 116 -98 80 -327 306 -321 316 3 5 1 7 -5 3 -15 -9 -106 100 -96
116 4 7 4 10 -1 6 -12 -11 -35 11 -29 27 3 7 0 16 -7 21 -8 5 -10 3 -4 -7 5
-9 5 -11 -2 -4 -5 6 -20 28 -32 50 -21 36 -21 38 -2 15 11 -14 21 -29 21 -34
0 -5 3 -7 6 -4 3 4 -5 23 -19 45 -13 21 -55 99 -92 173 -79 155 -73 145 -80
138 -3 -3 13 -40 36 -82 22 -42 38 -76 35 -76 -3 0 -18 24 -32 53 -15 28 -40
71 -55 94 -16 23 -29 46 -29 52 0 6 -5 11 -11 11 -6 0 -9 -7 -5 -15 3 -8 0
-15 -6 -15 -7 0 -6 -6 2 -16 11 -12 11 -15 -1 -12 -14 3 -15 -10 -5 -67 4 -21
3 -25 -3 -15 -17 26 -4 -133 14 -175 10 -22 26 -59 36 -83 11 -24 16 -48 13
-54 -4 -6 -3 -8 3 -5 5 3 10 -6 10 -22 0 -25 52 -116 77 -133 6 -4 7 -8 3 -8
-28 0 70 -121 234 -291 135 -139 180 -172 263 -193 55 -14 18 -16 -100 -6
-105 8 -127 13 -189 44 -88 44 -186 124 -252 207 -75 94 -155 218 -148 230 4
5 1 8 -7 7 -7 -2 -12 3 -11 10 2 6 -2 12 -8 12 -6 0 -9 7 -5 15 3 8 0 14 -7
12 -7 -1 -12 8 -11 20 0 12 -3 20 -7 17 -4 -2 -14 15 -23 38 -76 206 -112 306
-138 383 -37 107 -43 117 -77 113 -24 -3 -26 -7 -32 -68 -3 -36 -9 -72 -14
-79 -5 -10 -4 -12 3 -7 13 8 17 -16 5 -27 -3 -4 -6 -25 -6 -47 0 -22 3 -43 6
-47 4 -3 7 -15 7 -25 0 -11 12 -54 26 -96 15 -42 27 -86 28 -97 4 -37 19 -85
27 -91 5 -3 9 -16 9 -30 0 -14 4 -22 10 -19 6 3 10 0 10 -8 0 -7 21 -56 46
-107 34 -72 48 -91 55 -80 7 11 8 8 4 -11 -4 -17 -1 -30 9 -38 12 -10 16 -10
16 -2 0 7 5 9 11 5 8 -5 8 -9 -1 -14 -15 -9 11 -69 42 -97 15 -12 19 -13 14
-3 -9 19 6 -2 64 -85 25 -35 62 -74 82 -87 21 -13 38 -26 38 -30 0 -5 7 -8 15
-8 8 0 15 -4 15 -10 0 -5 6 -10 14 -10 8 0 17 -4 20 -8 8 -14 -248 54 -295 78
-126 64 -221 155 -278 267 -38 76 -40 91 -5 40 14 -21 29 -35 32 -31 4 4 1 9
-5 11 -7 3 -13 9 -13 15 0 6 7 8 15 4 8 -3 15 -1 15 4 0 6 -4 10 -10 10 -5 0
-10 13 -10 28 0 15 -4 32 -9 37 -5 6 -18 35 -29 65 -11 30 -43 111 -71 178
-28 68 -51 132 -51 142 0 10 -4 21 -9 24 -4 3 -14 39 -20 81 -14 86 -24 100
-16 23 3 -35 -1 -22 -14 37 -25 125 -33 175 -21 150 14 -32 17 161 3 210 l-6
20 -8 -20 c-5 -14 -8 -8 -8 25 -1 33 -4 41 -11 30 -8 -13 -10 -12 -10 3 0 9 5
17 10 17 6 0 10 7 10 15 0 8 -8 15 -17 15 -15 0 -16 -2 -3 -10 12 -8 12 -10 1
-10 -11 0 -12 -18 -8 -92 3 -55 2 -81 -3 -63 l-8 30 -1 -30 c0 -17 -8 -41 -17
-53 -8 -12 -22 -53 -30 -90 l-14 -67 5 115 c3 63 8 144 10 180 3 40 2 58 -3
46 -8 -19 -9 -19 -14 2 -5 17 -2 22 13 22 11 0 19 7 19 16 0 14 8 16 58 10 31
-3 93 -13 137 -21z m-7983 -20 c-3 -5 2 -4 11 3 14 12 21 11 49 -9 55 -39 86
-80 93 -121 4 -21 11 -36 15 -33 5 3 11 1 14 -4 12 -19 -12 -20 -29 -1 -10 11
-23 20 -30 20 -7 0 -20 9 -30 20 -10 11 -25 20 -33 20 -25 0 -72 34 -72 52 0
11 -7 18 -20 18 -11 0 -20 5 -20 10 0 6 10 10 23 10 21 1 21 1 4 14 -17 13
-16 14 7 12 13 0 21 -5 18 -11z m7242 -29 c-3 -15 -8 -25 -11 -23 -2 3 -1 17
3 31 3 15 8 25 11 23 2 -3 1 -17 -3 -31z m-43 -7 c-5 -13 -10 -19 -10 -12 -1
15 10 45 15 40 3 -2 0 -15 -5 -28z m556 -81 c-2 -13 -4 -5 -4 17 -1 22 1 32 4
23 2 -10 2 -28 0 -40z m-10390 6 c-3 -3 -12 -4 -19 -1 -8 3 -5 6 6 6 11 1 17
-2 13 -5z m10360 -56 c-3 -8 -6 -5 -6 6 -1 11 2 17 5 13 3 -3 4 -12 1 -19z
m-320 -30 c-3 -8 -6 -5 -6 6 -1 11 2 17 5 13 3 -3 4 -12 1 -19z m2544 -76
c-97 -25 -158 -36 -185 -33 -29 4 -34 6 -16 9 14 2 70 14 125 27 55 13 114 26
130 28 91 12 74 2 -54 -31z m-336 7 c13 -6 5 -6 -20 -2 -22 3 -49 10 -60 14
-13 6 -5 6 20 2 22 -3 49 -10 60 -14z m52 -15 c-3 -3 -12 -4 -19 -1 -8 3 -5 6
6 6 11 1 17 -2 13 -5z m40 -10 c-3 -3 -12 -4 -19 -1 -8 3 -5 6 6 6 11 1 17 -2
13 -5z m-9403 -59 c8 -16 18 -43 21 -60 6 -24 2 -20 -18 17 -14 26 -34 59 -44
74 -17 27 -17 27 5 13 12 -8 28 -27 36 -44z m4662 -4 c79 -25 146 -53 141 -57
-4 -5 -197 62 -205 71 -9 8 3 6 64 -14z m3194 -86 c16 -49 28 -90 26 -92 -2
-3 -16 33 -31 79 -16 46 -30 90 -33 98 -3 8 -2 12 2 9 3 -3 20 -46 36 -94z
m1654 63 c19 -26 21 -52 4 -42 -7 4 -8 3 -4 -4 4 -6 13 -9 20 -6 8 3 20 -8 29
-28 9 -18 17 -28 17 -23 1 12 29 -36 30 -49 0 -5 -11 1 -25 14 -24 23 -37 16
-13 -8 6 -6 9 -15 5 -18 -3 -4 -12 5 -18 20 -7 14 -16 26 -21 26 -4 0 -8 5 -8
11 0 5 5 7 12 3 7 -4 8 -3 4 5 -4 6 -11 9 -16 6 -11 -7 -50 70 -50 97 0 25 16
23 34 -4z m-1304 -33 c0 -5 -5 -3 -10 5 -5 8 -10 20 -10 25 0 6 5 3 10 -5 5
-8 10 -19 10 -25z m1369 19 c21 -12 27 -22 23 -39 -2 -12 1 -26 7 -30 6 -3 10
-1 9 6 -2 6 3 14 10 16 7 3 12 -4 12 -16 0 -11 5 -23 10 -26 6 -3 10 -11 10
-17 0 -6 -10 -3 -22 8 -18 15 -20 15 -9 2 7 -10 11 -23 9 -29 -4 -13 -78 81
-78 100 0 6 -4 11 -10 11 -5 0 -10 7 -10 15 0 19 5 19 39 -1z m-4745 -3 c4 -5
-3 -7 -14 -4 -23 6 -26 13 -6 13 8 0 17 -4 20 -9z m4186 -73 c0 -6 -9 1 -20
15 -11 14 -20 29 -20 34 1 11 40 -37 40 -49z m-781 -13 c0 -5 -6 1 -14 15 -8
14 -14 30 -14 35 0 6 6 -1 14 -15 8 -14 14 -29 14 -35z m-8202 13 c-3 -8 -6
-5 -6 6 -1 11 2 17 5 13 3 -3 4 -12 1 -19z m860 -69 c1 -9 -9 -29 -22 -43 -32
-34 -32 -43 -1 -22 31 19 106 33 106 18 0 -6 -14 -22 -31 -36 -17 -14 -25 -26
-17 -26 7 0 -7 -11 -32 -23 -25 -12 -56 -30 -70 -40 -13 -9 -29 -17 -35 -17
-5 0 -3 5 5 10 8 5 10 10 5 10 -13 0 -9 134 6 207 l10 52 37 -37 c20 -20 37
-44 39 -53z m5063 -9 c6 -11 8 -20 6 -20 -3 0 -10 9 -16 20 -6 11 -8 20 -6 20
3 0 10 -9 16 -20z m1667 -12 c-3 -8 -6 -5 -6 6 -1 11 2 17 5 13 3 -3 4 -12 1
-19z m287 -38 c5 -17 4 -20 -2 -10 -5 8 -13 26 -16 40 -5 17 -4 20 2 10 5 -8
13 -26 16 -40z m-9771 3 c-7 -2 -19 -2 -25 0 -7 3 -2 5 12 5 14 0 19 -2 13 -5z
m7112 -119 c9 -15 12 -23 6 -20 -11 7 -35 46 -28 46 3 0 12 -12 22 -26z m87
-9 c4 -5 8 -7 8 -2 0 14 84 -44 146 -100 14 -13 30 -23 36 -23 5 0 19 -11 30
-25 11 -14 26 -25 34 -25 8 0 32 -18 54 -41 25 -26 45 -39 55 -35 9 3 15 0 15
-10 0 -10 6 -14 14 -11 8 3 20 -1 27 -9 10 -12 9 -13 -7 -7 -17 6 -17 5 -6
-10 8 -8 19 -14 26 -11 7 3 19 -3 27 -13 13 -16 12 -17 -3 -5 -14 11 -16 11
-11 -7 3 -12 10 -21 15 -21 5 0 6 -5 2 -12 -4 -6 -3 -8 4 -4 6 3 16 -2 22 -11
11 -17 11 -17 6 0 -5 16 -3 16 22 3 34 -18 154 -141 145 -150 -3 -3 3 -6 14
-6 18 0 40 -20 103 -95 l25 -29 -27 19 c-15 11 -28 24 -28 28 0 5 -4 6 -9 3
-5 -3 -22 9 -38 27 -59 67 -242 145 -402 172 l-103 17 -59 58 c-33 31 -59 62
-59 69 0 17 -100 147 -111 144 -4 -2 -5 5 -2 14 5 12 3 14 -8 8 -8 -4 -11 -5
-7 0 4 4 -1 19 -12 33 -19 23 -18 48 0 37 10 -6 72 -95 101 -143 9 -15 22 -27
30 -27 8 -1 13 -6 12 -13 -3 -10 109 -132 121 -132 3 0 -25 39 -62 87 -37 48
-82 110 -100 138 -19 27 -31 41 -28 30 l6 -20 -16 20 c-23 29 -46 75 -37 75 4
0 -3 7 -16 16 -17 12 -20 19 -10 24 12 8 48 -6 61 -25z m47 -149 c-3 -3 -11 5
-18 17 -13 21 -12 21 5 5 10 -10 16 -20 13 -22z m1888 12 c-3 -8 -6 -5 -6 6
-1 11 2 17 5 13 3 -3 4 -12 1 -19z m-2957 -162 c0 -3 -4 -8 -10 -11 -5 -3 -10
-1 -10 4 0 6 5 11 10 11 6 0 10 -2 10 -4z m28 -25 c9 -5 36 -11 60 -14 53 -6
57 -9 26 -24 -19 -9 -27 -8 -38 2 -7 8 -25 17 -40 21 -14 3 -29 10 -32 15 -7
11 3 11 24 0z m-6368 -120 c0 -15 13 -45 29 -66 38 -52 228 -169 361 -223 64
-26 88 -46 112 -88 27 -49 13 -58 -80 -52 -44 4 -88 11 -99 17 -17 10 -16 11
7 18 22 7 19 9 -20 13 -39 4 -45 8 -45 29 0 18 -7 26 -28 32 -16 4 -43 18 -60
32 -18 13 -60 38 -94 56 -68 36 -169 117 -152 123 7 2 6 13 -2 33 -21 52 -20
55 17 38 39 -19 50 -14 35 15 -8 15 -8 21 2 25 9 3 9 8 -2 21 -12 14 -12 16 3
10 9 -4 16 -17 16 -33z m-1260 -40 c0 -11 -56 -21 -90 -16 -14 2 -41 4 -60 5
l-35 2 30 8 c43 11 155 12 155 1z m40 -5 c0 -2 -8 -10 -17 -17 -16 -13 -17
-12 -4 4 13 16 21 21 21 13z m2770 -43 c-5 -10 -16 -36 -25 -57 -21 -53 -26
-42 -10 19 8 28 14 46 14 41 1 -6 6 -5 13 2 17 17 20 15 8 -5z m4114 -99 c3
-8 2 -12 -4 -9 -6 3 -10 10 -10 16 0 14 7 11 14 -7z m5309 9 c-7 -2 -21 -2
-30 0 -10 3 -4 5 12 5 17 0 24 -2 18 -5z m-11148 -53 c3 -5 2 -10 -4 -10 -5 0
-13 5 -16 10 -3 6 -2 10 4 10 5 0 13 -4 16 -10z m4000 -70 c13 -5 14 -9 5 -9
-8 0 -24 4 -35 9 -13 5 -14 9 -5 9 8 0 24 -4 35 -9z m-68 -16 c-3 -3 -12 -4
-19 -1 -8 3 -5 6 6 6 11 1 17 -2 13 -5z m-4107 -38 c0 -2 -7 -7 -16 -10 -8 -3
-12 -2 -9 4 6 10 25 14 25 6z m4099 0 c-2 -2 -20 -6 -39 -10 -25 -4 -31 -3
-20 4 14 9 69 15 59 6z m818 -3 c-4 -3 1 -16 10 -27 18 -21 18 -21 -4 -2 -20
16 -23 36 -6 36 4 0 3 -3 0 -7z m-4108 -109 l26 -14 -35 0 c-19 1 -43 7 -53
14 -16 12 -15 14 9 14 15 0 38 -7 53 -14z m747 -22 c17 -10 -83 -189 -123
-219 l-32 -25 11 30 c10 26 7 39 -25 106 -42 88 -37 96 39 79 28 -7 44 -7 44
-1 0 6 6 8 14 5 8 -3 22 3 32 14 19 21 24 22 40 11z m4109 -42 c3 -6 -1 -7 -9
-4 -18 7 -21 14 -7 14 6 0 13 -4 16 -10z m1682 -52 c-3 -8 -6 -5 -6 6 -1 11 2
17 5 13 3 -3 4 -12 1 -19z m-4502 -2 c75 -20 141 -53 184 -91 21 -19 41 -32
44 -29 6 6 11 -13 20 -70 13 -80 -41 -253 -100 -326 -18 -21 -23 -22 -37 -11
-9 7 -13 17 -10 22 3 5 0 9 -6 9 -6 0 -9 4 -6 9 4 5 2 11 -4 13 -6 2 -4 14 5
31 8 15 12 35 9 45 -5 13 -4 14 4 3 11 -15 27 2 17 18 -3 6 4 8 16 6 14 -3 19
0 16 8 -3 8 5 14 21 15 32 3 40 15 37 56 -2 25 -7 31 -24 30 -16 -1 -20 3 -16
16 3 10 1 21 -4 25 -7 3 -8 0 -5 -9 3 -9 1 -16 -5 -16 -6 0 -11 3 -11 8 0 14
-37 30 -50 22 -12 -7 -11 -13 5 -32 20 -23 20 -23 0 -8 -11 8 -28 24 -38 35
-10 11 -15 14 -11 6 5 -11 1 -10 -17 2 -26 19 -54 23 -44 7 4 -6 11 -7 17 -4
6 4 5 -3 -2 -16 -7 -13 -8 -20 -2 -16 11 6 42 -30 42 -49 0 -5 -5 -3 -11 5 -8
12 -9 11 -4 -6 7 -27 -20 -40 -34 -16 -6 9 -11 13 -11 8 0 -5 -32 24 -71 65
-48 50 -69 66 -64 50 5 -17 4 -21 -5 -16 -6 4 -9 16 -7 27 3 11 2 29 -4 39 -5
11 -14 28 -19 39 -7 14 -7 20 1 20 6 0 8 7 5 16 -5 14 -4 15 9 4 11 -9 15 -9
15 -1 0 7 5 9 12 5 19 -12 96 -17 78 -5 -8 5 -17 8 -21 6 -3 -3 -15 5 -27 15
-12 11 -27 20 -34 21 -7 0 -4 4 7 9 11 4 34 6 50 4 25 -4 27 -3 10 5 -19 9
-18 10 5 10 14 0 48 -5 75 -13z m-2855 -46 c-17 -22 -34 -40 -37 -40 -2 0 10
18 27 40 17 22 34 40 37 40 2 0 -10 -18 -27 -40z m4846 -6 c-7 -26 14 -86 41
-119 10 -11 3 -6 -14 10 -32 30 -62 115 -41 115 6 0 7 7 4 16 -3 9 -2 12 5 8
6 -3 8 -17 5 -30z m-1659 -15 c-9 -6 -15 -14 -13 -18 3 -4 -4 -8 -16 -8 -17
-2 -16 1 8 22 16 13 31 22 33 19 3 -3 -2 -10 -12 -15z m-2967 -85 c88 -89 91
-93 39 -56 -31 23 -59 39 -62 36 -3 -3 -10 3 -16 14 -5 10 -24 34 -40 51 -30
32 -39 51 -23 51 4 0 50 -44 102 -96z m225 -22 c39 -13 45 -17 26 -20 -21 -3
-141 35 -141 45 0 7 57 -6 115 -25z m1400 -28 c-27 -40 -32 -60 -13 -48 7 4
-2 -17 -19 -47 -25 -45 -82 -169 -158 -344 -30 -71 -39 -101 -38 -134 l1 -36
-8 34 c-8 32 -1 58 30 126 5 11 23 56 41 100 17 44 55 127 84 185 30 57 53
106 51 108 -9 8 -164 -290 -221 -423 -25 -60 -50 -114 -55 -119 -5 -5 4 24 21
65 74 181 123 295 130 304 5 5 9 17 9 27 0 10 5 18 12 18 6 0 9 3 5 6 -8 8
135 214 149 214 2 0 -8 -16 -21 -36z m3031 -42 c11 -7 6 -6 -11 2 -16 8 -41
27 -55 42 l-25 28 36 -29 c20 -17 44 -36 55 -43z m-3236 16 c18 -29 21 -48 8
-48 -6 0 -8 -11 -6 -25 3 -14 1 -25 -3 -25 -5 0 -6 -6 -3 -14 6 -15 -22 -25
-102 -39 -40 -8 -48 1 -29 30 15 22 14 23 -7 24 -22 0 -22 1 -3 9 19 8 19 9 1
9 -16 1 -15 4 8 22 14 11 26 25 26 31 0 46 84 65 110 26z m-1195 2 c19 -8 19
-9 -2 -9 -12 -1 -25 4 -28 9 -7 12 2 12 30 0z m2535 -11 c0 -6 -4 -7 -10 -4
-5 3 -10 11 -10 16 0 6 5 7 10 4 6 -3 10 -11 10 -16z m-4277 -123 c6 -78 25
-129 61 -160 l21 -18 -25 14 c-14 8 -50 52 -82 99 -54 80 -76 125 -57 113 5
-3 9 0 9 5 0 6 9 11 19 11 11 0 23 5 26 10 13 22 22 -2 28 -74z m9050 57 c-12
-30 -45 -84 -50 -79 -6 5 40 95 49 96 4 0 4 -8 1 -17z m-5479 -14 c-2 -4 34
-37 80 -73 46 -37 94 -80 106 -96 12 -16 26 -27 31 -25 4 3 11 0 15 -6 4 -8 3
-9 -4 -5 -14 8 -14 -1 -2 -29 7 -17 9 -17 9 -2 1 20 11 22 35 4 17 -12 17 -14
1 -27 -14 -12 -18 -12 -26 1 -5 8 -9 10 -9 5 0 -5 -9 -1 -20 9 -20 18 -21 18
-15 -1 6 -17 5 -17 -5 -2 -16 26 -47 41 -56 26 -4 -6 -3 -8 3 -5 6 4 16 1 22
-7 9 -11 6 -12 -14 -8 -16 3 -37 21 -55 46 -15 23 -35 48 -44 55 -19 16 -22
36 -3 25 7 -5 5 3 -4 16 -10 14 -24 24 -34 22 -13 -3 -15 0 -6 15 8 14 5 23
-14 43 -23 24 -23 26 -6 26 11 0 18 -3 15 -7z m5570 -26 c-10 -16 -33 -52 -51
-82 -18 -30 -33 -50 -33 -45 0 12 89 154 97 154 3 0 -3 -12 -13 -27z m-7643
-30 l24 -27 -24 15 c-14 9 -27 21 -29 27 -6 19 3 14 29 -15z m7818 -25 c-13
-24 -44 -95 -71 -158 -54 -125 -57 -107 -4 25 30 78 82 175 92 175 2 0 -5 -19
-17 -42z m-6369 -2 c0 -2 -26 -11 -57 -21 -61 -19 -59 -33 1 -16 42 11 45 4
12 -32 -15 -17 -20 -28 -13 -31 7 -2 4 -5 -6 -5 -10 -1 -16 -5 -13 -10 4 -5 1
-11 -6 -13 -15 -5 -21 -48 -6 -48 6 0 3 -10 -8 -21 -15 -18 -16 -23 -5 -27 10
-3 7 -8 -10 -18 -13 -7 -19 -13 -12 -14 9 0 9 -8 2 -30 -10 -29 -26 -38 -72
-44 -12 -2 -35 -8 -50 -15 -36 -14 -37 -14 -37 4 0 9 7 18 15 21 8 4 13 9 10
14 -2 4 13 15 35 25 22 10 38 21 35 24 -3 3 5 11 17 18 22 12 22 12 -12 14
-19 2 -46 2 -60 1 l-25 -1 25 14 c14 8 19 14 11 15 -11 0 -9 4 5 15 18 14 17
14 -8 5 -16 -5 -28 -6 -28 -2 0 13 61 92 71 92 5 0 9 7 9 15 0 10 -10 15 -27
15 -24 0 -25 2 -13 14 20 20 220 58 220 42z m660 -17 c0 -6 -4 -7 -10 -4 -5 3
-10 11 -10 16 0 6 5 7 10 4 6 -3 10 -11 10 -16z m5383 6 c-3 -9 -8 -14 -10
-11 -3 3 -2 9 2 15 9 16 15 13 8 -4z m608 -136 c-21 -57 -44 -135 -51 -174 -8
-38 -15 -64 -18 -57 -6 19 26 166 49 219 42 100 53 123 56 120 2 -2 -15 -50
-36 -108z m-243 -39 c-43 -95 -59 -114 -33 -39 15 42 62 129 70 129 2 0 -15
-41 -37 -90z m1057 61 c26 -9 23 -10 -20 -4 -27 3 -104 9 -170 14 l-120 7 140
-3 c77 -2 154 -8 170 -14z m-6481 -92 c-4 -8 -3 -9 4 -5 7 4 12 3 12 -3 0 -5
-5 -13 -11 -17 -14 -8 -29 14 -29 44 0 21 1 22 16 8 8 -9 12 -21 8 -27z m-628
-29 c8 0 14 -7 14 -17 0 -14 -2 -14 -20 2 -11 10 -20 23 -19 29 0 6 3 6 6 -1
2 -7 11 -13 19 -13z m6368 -24 c-3 -15 -8 -25 -11 -23 -2 3 -1 17 3 31 3 15 8
25 11 23 2 -3 1 -17 -3 -31z m-7593 -45 c-12 -23 -43 -63 -69 -89 -53 -52
-309 -229 -277 -191 11 13 23 26 26 29 4 3 6 16 5 30 -1 14 3 59 9 100 9 61
14 75 28 74 9 -1 14 2 11 7 -3 5 24 9 59 9 38 0 77 6 93 15 16 8 37 15 47 15
9 0 17 5 17 11 0 6 7 9 15 5 10 -4 15 1 15 15 0 11 5 17 10 14 6 -3 10 -1 10
6 0 9 3 10 11 2 8 -8 5 -22 -10 -52z m1244 39 c11 17 34 -8 30 -31 -2 -11 0
-17 5 -14 13 8 52 -47 41 -58 -7 -7 -7 -17 0 -29 17 -31 5 -45 -17 -19 -10 12
-27 32 -37 44 -16 19 -57 101 -57 114 0 3 6 0 14 -6 10 -9 16 -9 21 -1z m6332
-52 c-3 -8 -6 -5 -6 6 -1 11 2 17 5 13 3 -3 4 -12 1 -19z m250 -10 c-3 -8 -6
-5 -6 6 -1 11 2 17 5 13 3 -3 4 -12 1 -19z m-9503 -61 c43 -21 87 -39 96 -40
10 -2 36 -19 58 -39 25 -23 55 -39 79 -43 55 -10 62 -13 25 -14 -36 -1 -74 16
-133 59 -21 15 -65 38 -96 51 -32 12 -74 33 -93 47 -42 29 -38 27 64 -21z
m2487 10 c-10 -9 -11 -8 -5 6 3 10 9 15 12 12 3 -3 0 -11 -7 -18z m-167 -29
c-5 -8 -2 -9 9 -5 10 3 17 2 17 -3 0 -6 -2 -10 -5 -10 -2 0 -27 -9 -55 -20
-27 -11 -50 -17 -50 -14 0 3 13 10 30 15 16 6 27 15 24 20 -3 5 2 6 11 3 9 -4
15 -3 14 2 -2 14 0 24 7 24 3 0 2 -5 -2 -12z m7523 -4 c-3 -3 -12 -4 -19 -1
-8 3 -5 6 6 6 11 1 17 -2 13 -5z m-5387 -94 c0 -5 -2 -10 -4 -10 -3 0 -8 5
-11 10 -3 6 -1 10 4 10 6 0 11 -4 11 -10z m-3202 -32 c-13 -10 -26 -18 -31
-18 -4 0 -30 -11 -59 -25 -28 -14 -53 -23 -55 -21 -5 4 49 40 62 41 17 1 65
28 65 36 0 4 9 7 20 6 20 -1 20 -2 -2 -19z m-691 -34 c-3 -3 -12 -4 -19 -1 -8
3 -5 6 6 6 11 1 17 -2 13 -5z m53 -14 c18 -12 2 -12 -25 0 -13 6 -15 9 -5 9 8
0 22 -4 30 -9z m372 -213 c12 -23 -4 -22 -33 1 l-22 19 22 -2 c13 -1 27 -9 33
-18z m-2704 -54 c19 -16 51 -43 70 -60 19 -18 39 -33 43 -33 5 0 9 -5 9 -11 0
-9 -66 38 -145 105 -41 34 -23 33 23 -1z m-49 -178 c-1 -27 -37 95 -37 125 -1
26 4 15 18 -40 11 -41 19 -79 19 -85z m119 2 c7 -16 8 -26 3 -23 -5 3 -14 20
-20 38 -13 38 0 26 17 -15z"/>
<path d="M13919 5883 c-13 -16 -12 -17 4 -4 9 7 17 15 17 17 0 8 -8 3 -21 -13z"/>
<path d="M13865 5844 c-18 -16 -22 -22 -9 -15 18 9 53 42 43 41 -2 -1 -17 -12
-34 -26z"/>
<path d="M1781 5306 c-14 -17 22 -56 52 -56 18 0 19 -2 7 -10 -12 -8 -12 -10
-1 -10 7 0 24 11 36 24 19 20 20 26 8 30 -8 4 -19 4 -24 0 -5 -3 -9 -1 -9 3 0
5 -13 14 -30 20 -22 8 -32 8 -39 -1z"/>
<path d="M8828 4253 c7 -3 16 -2 19 1 4 3 -2 6 -13 5 -11 0 -14 -3 -6 -6z"/>
<path d="M9195 4199 c-4 -6 -24 -9 -44 -8 -20 2 -41 0 -46 -3 -6 -3 -35 -9
-65 -13 -67 -9 -81 -12 -145 -25 -27 -6 -59 -11 -70 -11 -11 -1 -31 -3 -45 -6
-23 -5 -24 -6 -5 -13 68 -28 386 15 550 75 l40 14 -82 1 c-48 0 -85 -4 -88
-11z"/>
<path d="M8808 4193 c6 -2 18 -2 25 0 6 3 1 5 -13 5 -14 0 -19 -2 -12 -5z"/>
<path d="M9242 4129 c-45 -9 -86 -32 -75 -42 10 -11 109 -8 140 4 26 10 27 11
9 21 -15 8 -16 12 -5 19 18 11 -8 10 -69 -2z"/>
<path d="M8510 3982 c38 -25 179 -45 310 -45 335 -1 388 6 110 14 -242 7 -358
16 -417 35 -15 5 -15 4 -3 -4z"/>
<path d="M7848 3923 c-16 -2 -28 -8 -28 -12 0 -12 89 -51 118 -51 28 0 72 24
72 40 0 21 -90 34 -162 23z"/>
<path d="M10207 3811 c23 -22 39 -28 28 -11 -3 5 -16 15 -28 21 l-22 11 22
-21z"/>
<path d="M8833 3768 c-65 -31 26 -100 110 -84 78 15 70 55 -16 81 -58 17 -64
17 -94 3z"/>
<path d="M10291 3736 c2 -2 15 -9 29 -15 24 -11 24 -11 6 3 -16 13 -49 24 -35
12z"/>
<path d="M7618 3569 c-44 -25 -4 -79 64 -86 55 -5 93 14 93 47 0 16 -9 29 -25
37 -30 15 -108 16 -132 2z"/>
<path d="M8038 3541 c-10 -10 -18 -23 -18 -29 0 -6 -8 -17 -18 -24 -11 -7 -24
-23 -31 -35 -7 -13 -21 -23 -34 -23 -18 0 -19 -2 -7 -10 12 -8 11 -10 -7 -10
-12 0 -25 -4 -28 -10 -4 -6 7 -10 26 -10 39 0 79 40 122 119 28 52 26 64 -5
32z"/>
<path d="M6773 3413 c9 -2 23 -2 30 0 6 3 -1 5 -18 5 -16 0 -22 -2 -12 -5z"/>
<path d="M8177 3359 c22 -24 80 -63 298 -200 61 -38 138 -90 173 -115 34 -25
62 -43 62 -40 0 9 -218 163 -339 239 -69 43 -139 89 -156 101 -47 35 -62 41
-38 15z"/>
<path d="M8587 3373 c-13 -12 -7 -40 11 -56 24 -21 66 -30 107 -23 28 6 35 11
35 31 0 34 -36 55 -96 55 -28 0 -54 -3 -57 -7z"/>
<path d="M9874 3065 c11 -8 24 -15 29 -15 4 0 5 -4 2 -10 -3 -6 1 -7 10 -4 14
6 14 8 -2 19 -10 6 -27 15 -38 18 -20 7 -20 7 -1 -8z"/>
<path d="M8233 3010 c-35 -14 -30 -55 11 -96 29 -29 41 -34 81 -34 46 0 47 0
40 28 -10 40 -32 70 -68 92 -36 22 -34 22 -64 10z"/>
<path d="M8720 2996 c0 -2 14 -14 30 -26 17 -12 30 -19 30 -16 0 2 -13 14 -30
26 -16 12 -30 19 -30 16z"/>
<path d="M7707 2896 c4 -5 -1 -7 -11 -3 -10 4 -15 3 -11 -3 8 -13 18 -13 39 3
16 12 16 13 -3 13 -11 0 -17 -5 -14 -10z"/>
<path d="M10170 2880 c8 -5 20 -10 25 -10 6 0 3 5 -5 10 -8 5 -19 10 -25 10
-5 0 -3 -5 5 -10z"/>
<path d="M7922 2618 c-31 -39 -17 -99 30 -132 28 -20 82 -21 98 -1 33 40 -32
145 -90 145 -15 0 -32 -6 -38 -12z"/>
<path d="M7710 2618 c0 -14 23 -58 32 -58 4 0 8 -6 8 -13 0 -22 121 -177 133
-170 6 3 7 1 3 -5 -9 -15 179 -258 196 -253 7 2 21 3 31 3 9 0 17 1 17 2 0 2
-23 17 -50 34 -28 17 -49 37 -48 44 2 7 -3 12 -10 10 -8 -1 -11 2 -8 6 3 5 -8
20 -24 32 -16 12 -27 26 -24 31 5 9 -49 87 -94 133 -15 16 -21 25 -14 22 20
-11 14 5 -10 25 -11 11 -17 19 -12 19 5 0 -17 24 -48 53 -30 28 -61 61 -67 72
-5 11 -11 17 -11 13z"/>
<path d="M10467 2489 c7 -7 15 -10 18 -7 3 3 -2 9 -12 12 -14 6 -15 5 -6 -5z"/>
<path d="M7598 2475 c-3 -11 -9 -29 -13 -40 -3 -11 1 -7 10 8 9 16 15 33 12
40 -2 6 -6 3 -9 -8z"/>
<path d="M6298 2433 c7 -3 16 -2 19 1 4 3 -2 6 -13 5 -11 0 -14 -3 -6 -6z"/>
<path d="M8593 2433 c9 -2 23 -2 30 0 6 3 -1 5 -18 5 -16 0 -22 -2 -12 -5z"/>
<path d="M7551 2365 c-24 -53 -25 -65 -11 -65 6 0 10 9 10 20 0 12 7 35 16 51
8 17 13 33 11 36 -3 2 -15 -17 -26 -42z"/>
<path d="M8632 2366 c8 -7 30 -16 49 -20 31 -5 32 -5 9 5 -14 6 -33 15 -42 20
-25 13 -31 11 -16 -5z"/>
<path d="M7482 2255 c-15 -32 -15 -35 -2 -35 6 0 10 7 10 16 0 14 2 15 17 3
15 -13 15 -12 3 11 -7 14 -14 26 -15 28 -1 1 -7 -9 -13 -23z"/>
<path d="M8720 2271 c0 -13 26 -21 63 -20 26 0 28 2 12 8 -39 15 -75 21 -75
12z"/>
<path d="M7530 2267 c0 -4 7 -22 16 -38 11 -23 18 -28 28 -20 7 6 17 7 21 3 5
-4 5 -1 0 6 -5 10 -10 11 -18 3 -8 -8 -16 -2 -29 21 -9 18 -17 29 -18 25z"/>
<path d="M8776 2205 c8 -20 73 -36 109 -27 28 8 25 10 -37 25 -81 21 -79 20
-72 2z"/>
<path d="M7920 2200 c0 -5 5 -9 12 -7 7 1 12 -3 13 -10 0 -6 3 -14 7 -18 9 -9
5 16 -5 33 -10 14 -27 16 -27 2z"/>
<path d="M7570 2181 c0 -6 4 -13 10 -16 6 -3 7 1 4 9 -7 18 -14 21 -14 7z"/>
<path d="M7785 2130 c-3 -5 -1 -10 4 -10 6 0 11 5 11 10 0 6 -2 10 -4 10 -3 0
-8 -4 -11 -10z"/>
<path d="M7463 1915 c7 -7 14 -10 17 -6 3 3 9 9 13 12 4 4 -3 7 -17 7 -19 0
-22 -3 -13 -13z"/>
<path d="M7560 1920 c-13 -8 -13 -10 2 -10 9 0 20 5 23 10 8 13 -5 13 -25 0z"/>
<path d="M8505 1780 c3 -5 8 -10 11 -10 2 0 4 5 4 10 0 6 -5 10 -11 10 -5 0
-7 -4 -4 -10z"/>
<path d="M8010 1690 c0 -5 5 -10 11 -10 5 0 7 5 4 10 -3 6 -8 10 -11 10 -2 0
-4 -4 -4 -10z"/>
<path d="M4139 4267 c5 -5 19 -7 32 -5 20 3 19 5 -9 9 -20 3 -29 2 -23 -4z"/>
<path d="M4238 4253 c6 -2 18 -2 25 0 6 3 1 5 -13 5 -14 0 -19 -2 -12 -5z"/>
<path d="M4198 3823 c7 -3 16 -2 19 1 4 3 -2 6 -13 5 -11 0 -14 -3 -6 -6z"/>
<path d="M2966 3806 c4 -9 15 -21 25 -27 23 -12 25 -29 4 -29 -15 0 -19 -20
-18 -85 0 -16 -6 -35 -13 -42 -14 -15 -9 -34 18 -72 21 -30 64 -38 493 -91
330 -41 454 -57 515 -66 24 -4 31 -3 21 4 -8 6 -11 17 -8 26 3 8 2 18 -3 21
-15 9 -113 24 -265 41 -76 8 -193 28 -260 44 -66 16 -131 31 -145 33 -14 2 6
5 43 6 38 0 78 6 90 12 36 19 67 51 67 70 0 22 -45 69 -68 70 -9 1 -3 5 13 8
25 6 20 9 -35 14 -132 14 -132 15 5 9 187 -8 276 -5 429 14 74 9 170 15 227
12 55 -2 95 0 90 5 -16 16 -349 28 -721 25 -206 -2 -405 1 -442 5 -60 8 -67 7
-62 -7z m284 -58 c0 -10 -96 -9 -130 1 -15 5 5 7 52 7 43 -1 78 -4 78 -8z
m-40 -58 c8 -5 11 -10 5 -10 -5 0 -17 5 -25 10 -8 5 -10 10 -5 10 6 0 17 -5
25 -10z m-1 -35 c3 -17 2 -17 -13 -3 -19 20 -21 31 -3 26 6 -3 14 -13 16 -23z
m16 -36 c12 -19 -3 -22 -27 -5 l-22 16 21 0 c12 0 25 -5 28 -11z m56 -38 c20
-8 16 -9 -19 -6 -24 3 -51 9 -60 15 -22 12 45 5 79 -9z"/>
<path d="M2930 3510 c0 -4 7 -13 15 -20 13 -11 13 -16 -1 -48 -17 -41 -31
-243 -20 -286 4 -18 18 -32 41 -42 19 -7 191 -45 382 -84 191 -39 384 -81 428
-95 l80 -25 18 21 c9 12 17 27 17 34 0 31 -77 30 -112 -2 -12 -10 -18 -12 -18
-4 0 6 14 20 31 30 l31 19 -58 11 c-89 16 -307 62 -324 67 -12 4 -12 7 -1 13
26 16 1 29 -79 40 -100 15 -174 37 -190 56 -7 8 -17 12 -23 8 -6 -3 -7 -1 -3
6 4 6 1 14 -8 17 -8 3 -17 12 -20 20 -4 10 -2 13 7 8 8 -5 7 -2 -2 9 -12 15
-11 17 3 17 9 0 19 7 22 15 4 8 10 13 14 10 5 -3 11 -1 15 5 3 5 14 10 23 10
12 -1 9 -5 -10 -15 -87 -48 -5 -134 136 -143 67 -4 74 -3 104 23 28 24 33 34
30 64 -2 29 1 38 19 46 l21 9 -20 11 c-28 13 -33 51 -10 64 36 19 529 -9 594
-34 9 -4 19 -2 22 3 3 5 -4 12 -16 15 -31 9 -275 41 -643 87 -176 22 -342 44
-370 49 -79 15 -125 19 -125 11z m290 -160 c12 -8 10 -10 -10 -9 -14 0 -34 4
-45 9 -17 7 -16 9 10 9 17 0 37 -4 45 -9z"/>
<path d="M3480 3370 c0 -5 4 -10 9 -10 6 0 13 5 16 10 3 6 -1 10 -9 10 -9 0
-16 -4 -16 -10z"/>
<path d="M1760 3330 c-36 -10 -58 -18 -50 -19 8 0 47 8 85 18 39 11 61 19 50
19 -11 0 -49 -8 -85 -18z"/>
<path d="M2380 3335 c-25 -8 -58 -26 -75 -40 -30 -26 -30 -26 -5 -22 14 2 34
8 45 13 15 6 12 -1 -12 -29 -35 -41 -40 -56 -21 -75 17 -17 57 -15 124 8 110
38 151 83 113 121 -12 12 -14 19 -6 20 6 0 3 4 -8 9 -30 13 -104 10 -155 -5z"/>
<path d="M1668 3303 c7 -3 16 -2 19 1 4 3 -2 6 -13 5 -11 0 -14 -3 -6 -6z"/>
<path d="M3368 2953 c6 -2 18 -2 25 0 6 3 1 5 -13 5 -14 0 -19 -2 -12 -5z"/>
<path d="M3410 2940 c0 -5 5 -10 11 -10 5 0 7 5 4 10 -3 6 -8 10 -11 10 -2 0
-4 -4 -4 -10z"/>
<path d="M2365 2898 c-27 -13 -59 -29 -70 -36 -19 -13 -19 -13 2 -7 22 6 22 6
6 -34 -20 -52 -7 -71 49 -71 42 0 128 37 165 72 22 20 49 75 41 83 -2 3 -35 7
-74 10 -58 5 -77 2 -119 -17z"/>
<path d="M3870 2880 c8 -5 20 -10 25 -10 6 0 3 5 -5 10 -8 5 -19 10 -25 10 -5
0 -3 -5 5 -10z"/>
<path d="M3900 2860 c-8 -5 -10 -10 -5 -10 6 0 17 5 25 10 8 5 11 10 5 10 -5
0 -17 -5 -25 -10z"/>
<path d="M3940 2845 c0 -9 6 -12 15 -9 8 4 15 7 15 9 0 2 -7 5 -15 9 -9 3 -15
0 -15 -9z"/>
<path d="M2079 2675 c-1 -3 -2 -11 -3 -17 -1 -7 -9 -12 -18 -10 -9 1 -19 -2
-23 -8 -4 -6 18 -10 62 -9 44 0 61 3 48 8 l-20 8 20 5 c17 5 16 6 -5 8 l-25 2
25 8 c21 7 19 8 -17 9 -24 1 -44 -1 -44 -4z"/>
<path d="M2520 2524 c-44 -19 -80 -52 -80 -74 0 -9 9 -25 20 -35 54 -49 192
42 166 110 -7 19 -60 19 -106 -1z"/>
<path d="M3590 2406 c0 -3 14 -12 30 -21 17 -9 30 -13 30 -11 0 3 -13 12 -30
21 -16 9 -30 13 -30 11z"/>
<path d="M2990 1916 c0 -2 7 -7 16 -10 8 -3 12 -2 9 4 -6 10 -25 14 -25 6z"/>
<path d="M3690 1565 c0 -8 4 -15 10 -15 5 0 7 7 4 15 -4 8 -8 15 -10 15 -2 0
-4 -7 -4 -15z"/>
<path d="M6743 4573 c9 -2 23 -2 30 0 6 3 -1 5 -18 5 -16 0 -22 -2 -12 -5z"/>
<path d="M8008 4163 c7 -3 16 -2 19 1 4 3 -2 6 -13 5 -11 0 -14 -3 -6 -6z"/>
<path d="M8200 4100 c0 -5 5 -10 11 -10 5 0 7 5 4 10 -3 6 -8 10 -11 10 -2 0
-4 -4 -4 -10z"/>
<path d="M8148 4083 c7 -3 16 -2 19 1 4 3 -2 6 -13 5 -11 0 -14 -3 -6 -6z"/>
<path d="M6205 3810 c-3 -5 -2 -10 4 -10 5 0 13 5 16 10 3 6 2 10 -4 10 -5 0
-13 -4 -16 -10z"/>
<path d="M11690 3459 c0 -5 5 -7 10 -4 6 3 10 8 10 11 0 2 -4 4 -10 4 -5 0
-10 -5 -10 -11z"/>
<path d="M11710 3429 c-7 -11 -10 -23 -7 -25 2 -2 9 7 15 21 14 30 7 33 -8 4z"/>
<path d="M11745 3439 c-4 -6 -5 -12 -2 -15 2 -3 7 2 10 11 7 17 1 20 -8 4z"/>
<path d="M11826 3327 c3 -10 9 -15 12 -12 3 3 0 11 -7 18 -10 9 -11 8 -5 -6z"/>
<path d="M11819 3293 c0 -5 -2 -24 -4 -43 l-4 -35 14 34 c8 18 15 37 15 42 0
11 -20 12 -21 2z"/>
<path d="M12151 3554 c0 -11 3 -14 6 -6 3 7 2 16 -1 19 -3 4 -6 -2 -5 -13z"/>
<path d="M12131 3534 c0 -11 3 -14 6 -6 3 7 2 16 -1 19 -3 4 -6 -2 -5 -13z"/>
<path d="M12096 3362 c-5 -40 -5 -76 -2 -79 3 -4 6 12 6 35 0 22 4 42 9 44 6
2 6 18 2 38 -7 32 -8 28 -15 -38z"/>
<path d="M12092 3230 c0 -14 2 -19 5 -12 2 6 2 18 0 25 -3 6 -5 1 -5 -13z"/>
<path d="M13002 3420 c0 -14 2 -19 5 -12 2 6 2 18 0 25 -3 6 -5 1 -5 -13z"/>
<path d="M13012 3355 c0 -16 2 -22 5 -12 2 9 2 23 0 30 -3 6 -5 -1 -5 -18z"/>
<path d="M13271 3354 c0 -11 3 -14 6 -6 3 7 2 16 -1 19 -3 4 -6 -2 -5 -13z"/>
<path d="M13031 3254 c0 -11 3 -14 6 -6 3 7 2 16 -1 19 -3 4 -6 -2 -5 -13z"/>
<path d="M14170 3174 c0 -2 9 -8 20 -14 15 -8 18 -8 14 3 -4 11 -34 21 -34 11z"/>
<path d="M14066 3155 c-3 -8 -1 -15 4 -15 6 0 10 7 10 15 0 8 -2 15 -4 15 -2
0 -6 -7 -10 -15z"/>
<path d="M12691 3144 c0 -11 3 -14 6 -6 3 7 2 16 -1 19 -3 4 -6 -2 -5 -13z"/>
<path d="M14360 3095 c0 -3 9 -16 21 -28 l21 -22 -13 28 c-11 23 -29 37 -29
22z"/>
<path d="M14400 3031 c0 -6 4 -13 10 -16 6 -3 7 1 4 9 -7 18 -14 21 -14 7z"/>
<path d="M4830 3450 c0 -6 7 -10 15 -10 8 0 15 2 15 4 0 2 -7 6 -15 10 -8 3
-15 1 -15 -4z"/>
<path d="M10611 2578 c29 -44 97 -114 134 -141 16 -12 -1 10 -38 48 -37 38
-67 72 -67 77 0 11 -33 48 -43 48 -5 0 2 -15 14 -32z"/>
<path d="M11120 2256 c0 -2 8 -10 18 -17 15 -13 16 -12 3 4 -13 16 -21 21 -21
13z"/>
<path d="M5237 1219 c7 -7 15 -10 18 -7 3 3 -2 9 -12 12 -14 6 -15 5 -6 -5z"/>
<path d="M5761 6323 c50 -76 51 -78 96 -81 40 -3 44 -2 40 15 -3 10 -8 29 -12
43 -4 14 -14 42 -23 63 l-16 37 -68 0 -68 0 51 -77z"/>
<path d="M5912 6314 c32 -102 41 -115 33 -54 -8 64 -34 140 -49 140 -9 0 -4
-26 16 -86z"/>
<path d="M5950 6393 c2 -20 39 -156 39 -143 1 12 3 12 9 2 7 -10 15 -10 36 -2
26 10 27 13 24 68 -3 32 -8 63 -12 70 -8 13 -96 17 -96 5z"/>
<path d="M6085 6373 c3 -45 16 -146 21 -170 2 -13 12 -23 21 -23 14 0 15 10
10 83 -4 45 -7 94 -7 110 0 22 -5 27 -23 27 -20 0 -23 -5 -22 -27z"/>
<path d="M6190 6355 c0 -25 3 -45 8 -45 6 0 51 61 60 83 2 4 -12 7 -32 7 -36
0 -36 0 -36 -45z"/>
<path d="M6257 6365 c-42 -53 -79 -132 -72 -155 8 -26 21 -25 38 3 42 67 73
126 83 155 10 28 9 32 -5 32 -9 0 -29 -16 -44 -35z"/>
<path d="M6401 6369 c-6 -18 -11 -36 -11 -41 0 -14 59 24 76 49 14 22 13 23
-20 23 -29 0 -36 -4 -45 -31z"/>
<path d="M6439 6328 c-86 -82 -155 -165 -145 -175 13 -13 56 21 167 133 108
108 112 114 84 114 -24 0 -47 -15 -106 -72z"/>
<path d="M6689 6368 c-53 -42 -68 -63 -52 -79 14 -14 56 0 197 67 l91 43 -97
1 c-94 0 -98 -1 -139 -32z"/>
<path d="M5730 6323 c35 -63 47 -79 54 -72 5 5 -72 129 -80 129 -3 0 9 -26 26
-57z"/>
<path d="M6700 6270 c-8 -5 -10 -10 -5 -10 6 0 17 5 25 10 8 5 11 10 5 10 -5
0 -17 -5 -25 -10z"/>
<path d="M6562 6204 c-62 -31 -112 -60 -112 -65 0 -5 -7 -9 -15 -9 -8 0 -15
-4 -15 -10 0 -14 8 -12 38 9 15 10 68 40 117 66 84 44 116 65 104 65 -3 0 -56
-25 -117 -56z"/>
<path d="M5025 6230 c-12 -4 -36 -10 -55 -13 -75 -12 -145 -43 -240 -107 -51
-34 -90 -70 -77 -70 2 0 26 9 52 21 29 13 56 18 72 14 18 -4 23 -2 17 6 -5 9
-2 10 9 6 19 -7 77 11 77 24 0 5 33 25 72 45 40 20 77 42 83 49 5 7 19 17 30
23 l20 11 -20 0 c-11 0 -29 -4 -40 -9z"/>
<path d="M5998 6223 c6 -2 18 -2 25 0 6 3 1 5 -13 5 -14 0 -19 -2 -12 -5z"/>
<path d="M8330 5399 c0 -5 5 -7 10 -4 6 3 10 8 10 11 0 2 -4 4 -10 4 -5 0 -10
-5 -10 -11z"/>
</g>
</svg>
